<svg id="svg" version="1.1" xmlns="http://www.w3.org/2000/svg" xmlns:xlink="http://www.w3.org/1999/xlink" width="400" height="400" viewBox="0, 0, 400,400"><g id="svgg"><path id="path1" d="M194.800 110.859 C 191.655 111.186,188.790 111.721,184.495 112.784 C 178.967 114.153,170.511 118.331,165.400 122.220 C 153.185 131.514,145.737 143.930,142.842 159.824 C 142.280 162.904,142.267 174.067,142.821 176.869 C 143.756 181.596,144.073 183.045,144.383 184.000 C 144.561 184.550,144.939 185.810,145.223 186.800 C 145.507 187.790,145.888 188.771,146.070 188.980 C 146.251 189.189,146.400 189.605,146.400 189.905 C 146.400 191.294,150.749 199.183,153.728 203.200 C 157.161 207.827,165.206 215.212,169.490 217.668 C 176.705 221.805,181.876 223.833,188.600 225.162 C 189.700 225.379,191.559 225.747,192.731 225.979 C 195.378 226.502,204.995 226.531,207.294 226.023 C 208.232 225.815,209.990 225.448,211.200 225.206 C 220.904 223.268,231.314 218.282,237.398 212.659 C 237.839 212.252,238.781 211.468,239.492 210.918 C 244.639 206.932,251.967 195.601,254.702 187.400 C 257.105 180.194,257.706 176.508,257.709 168.961 C 257.717 146.071,245.450 126.295,225.137 116.448 C 222.814 115.322,220.653 114.400,220.336 114.400 C 220.019 114.400,219.589 114.257,219.380 114.082 C 218.932 113.706,216.948 113.068,214.300 112.446 C 213.255 112.201,211.635 111.819,210.700 111.597 C 208.873 111.165,200.847 110.366,199.200 110.453 C 198.650 110.483,196.670 110.665,194.800 110.859 M208.080 118.816 C 233.426 123.789,250.400 143.964,250.400 169.116 C 250.400 173.228,250.260 174.419,249.142 179.800 C 248.565 182.577,247.351 186.141,245.969 189.118 C 245.326 190.503,244.800 191.699,244.800 191.777 C 244.800 191.855,244.054 193.152,243.143 194.659 C 236.929 204.939,225.235 213.890,214.200 216.813 C 213.540 216.988,211.920 217.440,210.600 217.818 C 208.690 218.364,206.566 218.505,200.200 218.503 C 192.237 218.502,191.917 218.465,185.800 216.826 C 170.658 212.768,155.990 198.272,151.976 183.400 C 149.397 173.842,149.007 164.991,150.847 157.800 C 152.084 152.963,152.910 150.644,154.835 146.600 C 156.976 142.102,163.473 133.193,165.415 132.092 C 165.698 131.931,166.621 131.170,167.465 130.400 C 171.240 126.957,175.038 124.581,180.500 122.244 C 184.668 120.461,186.243 119.988,190.786 119.160 C 191.988 118.941,193.053 118.681,193.152 118.581 C 193.517 118.216,206.026 118.413,208.080 118.816 M179.318 145.392 C 174.713 149.333,178.318 156.428,184.403 155.400 C 191.105 154.267,190.087 144.000,183.272 144.000 C 181.192 144.000,180.771 144.148,179.318 145.392 M212.034 145.856 C 210.032 148.130,209.773 150.651,211.300 152.989 C 213.969 157.076,220.859 155.943,221.829 151.257 C 223.101 145.111,216.092 141.246,212.034 145.856 M193.200 172.468 C 189.394 173.518,186.081 174.633,185.000 175.228 C 176.528 179.891,171.119 185.906,167.651 194.519 C 165.839 199.018,170.988 201.923,172.935 197.499 C 174.865 193.116,175.431 192.017,176.790 190.015 C 180.330 184.802,187.033 180.072,192.600 178.859 C 193.700 178.619,195.445 178.238,196.477 178.011 C 203.466 176.480,214.064 180.013,219.795 185.786 C 222.982 188.995,223.984 190.540,226.989 196.873 C 228.323 199.685,229.628 200.341,231.554 199.169 C 233.788 197.811,233.096 194.797,228.876 187.492 C 225.493 181.638,217.756 175.706,210.762 173.606 C 209.133 173.116,207.278 172.555,206.640 172.358 C 205.121 171.889,194.999 171.972,193.200 172.468 " stroke="none" fill="#8fb5de" fill-rule="evenodd"></path><path id="path2" d="M174.500 45.919 C 174.225 46.100,173.405 47.227,172.677 48.424 C 171.950 49.621,170.510 51.982,169.477 53.672 C 166.858 57.958,166.853 57.947,171.300 58.085 L 175.000 58.200 175.121 60.300 L 175.242 62.400 176.800 62.400 L 178.358 62.400 178.479 60.300 C 178.585 58.455,178.712 58.184,179.522 58.069 C 180.063 57.993,180.599 57.528,180.822 56.943 C 181.411 55.394,181.298 55.200,179.813 55.200 L 178.425 55.200 178.313 50.500 L 178.200 45.800 176.600 45.696 C 175.720 45.638,174.775 45.739,174.500 45.919 M191.400 46.066 C 186.266 48.898,185.220 56.709,189.395 61.037 C 191.178 62.885,195.624 63.086,197.811 61.419 C 204.914 56.001,199.012 41.866,191.400 46.066 M213.700 45.919 C 213.425 46.100,212.605 47.227,211.877 48.424 C 211.150 49.621,209.710 51.982,208.677 53.672 C 206.058 57.958,206.053 57.947,210.500 58.085 L 214.200 58.200 214.321 60.300 L 214.442 62.400 216.000 62.400 L 217.558 62.400 217.679 60.300 C 217.785 58.455,217.912 58.184,218.722 58.069 C 219.263 57.993,219.799 57.528,220.022 56.943 C 220.611 55.394,220.498 55.200,219.013 55.200 L 217.625 55.200 217.513 50.500 L 217.400 45.800 215.800 45.696 C 214.920 45.638,213.975 45.739,213.700 45.919 M227.200 51.600 L 227.200 57.600 228.800 57.600 L 230.400 57.600 230.400 51.600 L 230.400 45.600 228.800 45.600 L 227.200 45.600 227.200 51.600 M196.653 49.849 C 199.198 52.972,197.426 59.600,194.046 59.600 C 189.683 59.600,188.446 50.516,192.572 48.771 C 193.877 48.219,195.722 48.706,196.653 49.849 M175.200 52.800 L 175.200 55.200 173.567 55.200 C 172.668 55.200,171.993 55.063,172.067 54.896 C 172.705 53.440,174.596 50.400,174.864 50.400 C 175.049 50.400,175.200 51.480,175.200 52.800 M214.400 52.800 L 214.400 55.200 212.767 55.200 C 211.868 55.200,211.193 55.063,211.267 54.896 C 211.905 53.440,213.796 50.400,214.064 50.400 C 214.249 50.400,214.400 51.480,214.400 52.800 M227.486 59.448 C 226.386 60.547,227.226 62.400,228.824 62.400 L 230.448 62.400 230.324 60.900 C 230.202 59.420,228.423 58.510,227.486 59.448 M300.572 264.528 C 300.019 265.970,300.575 268.197,301.522 268.331 C 302.398 268.455,302.438 268.355,302.322 266.334 C 302.199 264.190,301.127 263.083,300.572 264.528 M73.860 265.601 C 71.877 266.591,70.901 267.740,70.371 269.708 C 68.711 275.871,75.510 280.293,80.319 276.177 C 86.025 271.292,80.520 262.276,73.860 265.601 M91.136 265.338 C 86.504 267.396,85.648 274.334,89.719 276.816 C 93.948 279.394,99.761 276.148,99.777 271.200 C 99.791 266.880,94.992 263.624,91.136 265.338 M105.067 265.067 C 104.920 265.213,104.800 268.093,104.800 271.467 L 104.800 277.600 106.000 277.600 C 107.127 277.600,107.200 277.505,107.200 276.052 C 107.200 274.557,107.262 274.487,109.015 273.996 C 113.535 272.730,114.090 267.159,109.881 265.295 C 108.694 264.770,105.515 264.619,105.067 265.067 M119.105 265.426 C 115.230 267.529,116.717 271.689,121.672 272.606 C 123.172 272.884,123.747 273.552,123.359 274.564 C 122.926 275.691,119.452 275.794,118.118 274.719 C 117.479 274.206,116.800 274.660,116.800 275.601 C 116.800 277.669,122.334 278.456,124.513 276.698 C 127.008 274.684,126.225 271.191,123.101 270.402 C 120.155 269.658,119.533 269.277,119.673 268.296 C 119.808 267.342,121.836 267.100,123.900 267.792 C 124.701 268.060,124.800 267.961,124.800 266.886 C 124.800 264.981,121.489 264.133,119.105 265.426 M171.600 265.200 L 168.600 265.400 168.600 271.400 L 168.600 277.400 171.851 277.515 C 174.482 277.609,175.148 277.513,175.339 277.015 C 175.815 275.773,175.179 275.242,173.065 275.120 L 171.000 275.000 171.000 273.600 C 171.000 272.236,171.044 272.197,172.724 272.076 C 175.187 271.898,175.148 269.878,172.678 269.675 C 169.744 269.433,170.440 267.200,173.449 267.200 C 175.039 267.200,175.200 267.110,175.200 266.224 C 175.200 264.973,175.161 264.962,171.600 265.200 M189.867 265.067 C 189.720 265.213,189.600 268.093,189.600 271.467 L 189.600 277.600 190.800 277.600 C 191.927 277.600,192.000 277.505,192.000 276.052 C 192.000 274.557,192.062 274.487,193.815 273.996 C 198.335 272.730,198.890 267.159,194.681 265.295 C 193.494 264.770,190.315 264.619,189.867 265.067 M218.821 265.732 C 212.783 268.820,214.761 277.600,221.495 277.600 C 225.042 277.600,226.400 276.282,226.400 272.840 L 226.400 270.400 224.000 270.400 C 221.274 270.400,220.155 272.180,222.697 272.473 C 225.192 272.761,224.044 275.200,221.413 275.200 C 218.563 275.200,217.190 272.428,218.584 269.490 C 219.619 267.309,221.488 266.795,224.700 267.809 C 225.497 268.061,225.600 267.956,225.600 266.886 C 225.600 264.737,221.974 264.120,218.821 265.732 M234.800 265.200 L 231.800 265.400 231.800 271.400 L 231.800 277.400 235.051 277.515 C 237.682 277.609,238.348 277.513,238.539 277.015 C 239.015 275.773,238.379 275.242,236.265 275.120 L 234.200 275.000 234.200 273.600 C 234.200 272.236,234.244 272.197,235.924 272.076 C 238.387 271.898,238.348 269.878,235.878 269.675 C 232.944 269.433,233.640 267.200,236.649 267.200 C 238.239 267.200,238.400 267.110,238.400 266.224 C 238.400 264.973,238.361 264.962,234.800 265.200 M270.336 265.338 C 265.704 267.396,264.848 274.334,268.919 276.816 C 273.148 279.394,278.961 276.148,278.977 271.200 C 278.991 266.880,274.192 263.624,270.336 265.338 M309.238 265.355 C 308.926 265.731,308.813 267.759,308.889 271.655 L 309.000 277.400 310.200 277.400 C 311.382 277.400,311.402 277.365,311.521 275.075 C 311.679 272.031,312.566 272.109,314.112 275.303 C 315.095 277.334,315.361 277.600,316.412 277.600 C 317.859 277.600,317.865 277.476,316.560 274.624 C 315.604 272.537,315.571 272.295,316.155 271.650 C 318.146 269.449,317.590 266.456,314.986 265.368 C 313.225 264.633,309.844 264.624,309.238 265.355 M326.000 265.200 L 323.000 265.400 323.000 271.400 L 323.000 277.400 326.251 277.515 C 328.882 277.609,329.548 277.513,329.739 277.015 C 330.215 275.773,329.579 275.242,327.465 275.120 L 325.400 275.000 325.400 273.600 C 325.400 272.236,325.444 272.197,327.124 272.076 C 329.587 271.898,329.548 269.878,327.078 269.675 C 324.144 269.433,324.840 267.200,327.849 267.200 C 329.439 267.200,329.600 267.110,329.600 266.224 C 329.600 264.973,329.561 264.962,326.000 265.200 M139.200 266.176 C 139.200 267.015,139.410 267.169,140.700 267.276 L 142.200 267.400 142.312 272.500 L 142.424 277.600 143.600 277.600 L 144.776 277.600 144.888 272.500 L 145.000 267.400 146.500 267.276 C 147.790 267.169,148.000 267.015,148.000 266.176 C 148.000 265.201,147.998 265.200,143.600 265.200 C 139.202 265.200,139.200 265.201,139.200 266.176 M152.976 265.719 C 152.866 266.005,152.827 268.750,152.888 271.819 L 153.000 277.400 154.080 277.525 C 155.142 277.647,155.163 277.607,155.280 275.125 L 155.400 272.600 157.361 272.476 C 159.717 272.326,159.986 272.637,159.994 275.527 C 160.000 277.609,160.023 277.651,161.100 277.527 L 162.200 277.400 162.200 271.400 L 162.200 265.400 161.100 265.273 C 160.035 265.151,160.000 265.209,159.994 267.073 C 159.985 269.751,159.689 270.072,157.361 269.924 L 155.400 269.800 155.280 267.500 C 155.160 265.208,153.627 264.023,152.976 265.719 M204.692 265.879 C 204.575 266.275,203.910 268.130,203.214 270.000 C 200.328 277.760,200.355 277.600,201.928 277.600 C 202.816 277.600,203.177 277.324,203.628 276.300 C 204.571 274.156,207.981 274.221,208.739 276.398 C 209.086 277.392,209.377 277.600,210.423 277.600 C 211.868 277.600,211.865 277.253,210.386 273.300 C 209.954 272.145,209.226 270.165,208.768 268.900 C 207.569 265.582,207.444 265.413,206.112 265.279 C 205.227 265.190,204.848 265.350,204.692 265.879 M252.336 265.397 C 252.228 265.505,253.008 267.315,254.070 269.419 C 255.672 272.594,256.000 273.613,256.000 275.422 C 256.000 277.575,256.014 277.600,257.200 277.600 C 258.380 277.600,258.400 277.565,258.408 275.500 C 258.415 273.798,258.788 272.655,260.373 269.474 C 261.837 266.535,262.193 265.495,261.788 265.340 C 260.626 264.894,259.759 265.481,258.788 267.371 C 257.434 270.008,257.089 270.013,255.859 267.415 C 254.863 265.312,253.311 264.422,252.336 265.397 M284.285 265.448 C 283.716 266.018,283.971 273.984,284.598 275.196 C 286.801 279.457,293.080 278.198,293.743 273.363 C 294.476 268.015,293.966 265.037,292.355 265.265 C 291.422 265.397,291.398 265.501,291.295 269.800 C 291.188 274.306,290.683 275.600,289.032 275.600 C 287.413 275.600,287.004 274.561,286.800 269.934 C 286.599 265.370,285.796 263.938,284.285 265.448 M78.831 268.369 C 81.458 270.996,79.997 275.200,76.456 275.200 C 73.838 275.200,72.800 274.112,72.800 271.366 C 72.800 267.621,76.329 265.867,78.831 268.369 M95.697 268.206 C 97.343 269.852,97.527 272.840,96.084 274.500 C 94.785 275.995,91.104 275.277,90.065 273.326 C 88.043 269.530,92.745 265.254,95.697 268.206 M109.987 268.500 C 110.804 269.967,109.927 271.736,108.287 271.927 C 107.209 272.052,107.200 272.034,107.200 269.600 C 107.200 266.760,108.691 266.172,109.987 268.500 M194.787 268.500 C 195.604 269.967,194.727 271.736,193.087 271.927 C 192.009 272.052,192.000 272.034,192.000 269.600 C 192.000 266.760,193.491 266.172,194.787 268.500 M274.897 268.206 C 276.543 269.852,276.727 272.840,275.284 274.500 C 273.985 275.995,270.304 275.277,269.265 273.326 C 267.243 269.530,271.945 265.254,274.897 268.206 M314.684 268.271 C 315.201 269.055,315.174 269.226,314.405 269.995 C 312.989 271.411,311.824 270.932,311.676 268.873 C 311.531 266.861,313.494 266.468,314.684 268.271 M206.797 270.393 C 207.398 271.844,207.096 272.800,206.036 272.800 C 204.930 272.800,204.795 272.398,205.330 270.689 C 205.893 268.888,206.152 268.836,206.797 270.393 M310.680 284.253 C 309.876 285.058,310.392 288.457,311.300 288.328 C 312.096 288.215,312.200 287.969,312.200 286.205 C 312.200 284.285,311.521 283.412,310.680 284.253 M88.736 285.338 C 84.104 287.396,83.248 294.334,87.319 296.816 C 91.548 299.394,97.361 296.148,97.377 291.200 C 97.391 286.880,92.592 283.624,88.736 285.338 M105.919 285.345 C 101.867 287.143,100.547 292.461,103.350 295.694 C 105.986 298.734,111.468 298.205,113.602 294.704 C 116.743 289.552,111.321 282.947,105.919 285.345 M161.112 285.553 C 158.585 286.854,157.740 288.058,157.568 290.603 C 157.255 295.237,159.193 297.601,163.300 297.598 C 167.056 297.595,168.187 296.565,168.194 293.142 L 168.200 290.600 165.869 290.479 C 163.416 290.352,162.345 291.993,164.666 292.323 C 167.039 292.661,165.934 295.200,163.415 295.200 C 161.290 295.200,160.000 293.888,160.000 291.726 C 160.000 288.158,163.039 286.299,166.464 287.772 C 167.409 288.179,167.894 286.523,167.071 285.700 C 166.105 284.734,162.858 284.654,161.112 285.553 M198.087 285.670 C 194.962 287.186,193.462 291.426,195.000 294.399 C 197.265 298.780,203.904 298.748,206.381 294.346 C 209.478 288.844,203.797 282.902,198.087 285.670 M212.838 285.355 C 212.526 285.731,212.413 287.759,212.489 291.655 L 212.600 297.400 213.679 297.525 C 214.730 297.646,214.762 297.589,214.879 295.328 C 215.053 291.988,216.005 291.930,217.452 295.174 C 218.400 297.298,218.673 297.600,219.644 297.600 C 221.186 297.600,221.250 297.280,220.157 295.025 C 218.994 292.626,218.978 292.208,220.000 290.909 C 221.548 288.941,220.751 286.330,218.281 285.277 C 216.737 284.618,213.409 284.666,212.838 285.355 M235.776 285.318 C 235.667 285.604,235.627 288.439,235.689 291.618 L 235.800 297.400 238.367 297.521 C 245.993 297.880,248.570 288.528,241.667 285.548 C 239.648 284.677,236.076 284.537,235.776 285.318 M253.860 285.601 C 251.877 286.591,250.901 287.740,250.371 289.708 C 248.711 295.871,255.510 300.293,260.319 296.177 C 266.025 291.292,260.520 282.276,253.860 285.601 M282.085 285.384 C 278.510 287.357,279.485 291.226,283.848 292.380 C 286.618 293.112,287.348 294.460,285.378 295.208 C 284.244 295.640,281.744 295.357,281.372 294.755 C 280.890 293.974,280.000 294.429,280.000 295.456 C 280.000 297.022,281.045 297.573,284.045 297.587 C 290.152 297.617,290.922 291.542,285.000 290.055 C 282.567 289.445,282.063 289.021,282.657 288.089 C 283.121 287.361,285.366 287.211,287.100 287.792 C 287.879 288.053,288.000 287.954,288.000 287.057 C 288.000 285.171,284.344 284.136,282.085 285.384 M74.586 285.692 C 74.471 285.993,74.427 288.750,74.488 291.819 L 74.600 297.400 77.400 297.400 C 80.725 297.400,81.848 295.635,78.800 295.200 L 77.400 295.000 77.200 290.200 L 77.000 285.400 75.898 285.273 C 75.238 285.197,74.711 285.365,74.586 285.692 M119.786 285.691 C 119.671 285.992,119.627 288.750,119.688 291.819 L 119.800 297.400 120.800 297.400 C 121.656 297.400,121.816 297.198,121.908 296.000 C 122.224 291.907,123.357 291.611,124.968 295.200 C 125.982 297.460,126.125 297.600,127.422 297.600 C 129.123 297.600,129.155 297.891,126.983 293.566 L 125.166 289.949 125.988 288.619 C 126.440 287.888,127.077 287.068,127.405 286.796 C 128.403 285.968,128.113 285.200,126.803 285.200 C 125.808 285.200,125.386 285.537,124.303 287.193 C 122.655 289.714,122.078 289.740,121.922 287.300 C 121.798 285.364,120.335 284.262,119.786 285.691 M134.000 291.400 L 134.000 297.600 135.200 297.600 L 136.400 297.600 136.400 291.400 L 136.400 285.200 135.200 285.200 L 134.000 285.200 134.000 291.400 M143.200 291.000 C 143.200 294.190,143.200 296.935,143.200 297.100 C 143.200 297.265,143.695 297.400,144.300 297.400 C 145.395 297.400,145.400 297.387,145.517 294.300 C 145.659 290.524,145.848 290.488,147.819 293.858 C 151.308 299.824,152.000 299.413,152.000 291.373 L 152.000 285.147 150.900 285.273 C 149.810 285.399,149.799 285.430,149.684 288.700 C 149.620 290.515,149.395 292.000,149.184 292.000 C 148.973 292.000,148.800 291.812,148.800 291.582 C 148.800 290.575,144.747 285.200,143.988 285.200 C 143.240 285.200,143.200 285.497,143.200 291.000 M182.976 285.719 C 182.866 286.005,182.827 288.750,182.888 291.819 L 183.000 297.400 184.200 297.400 C 185.390 297.400,185.402 297.378,185.600 294.800 L 185.800 292.200 187.600 292.000 C 189.287 291.813,189.456 291.652,189.260 290.423 C 189.227 290.216,188.435 289.991,187.500 289.923 C 184.677 289.719,184.923 287.488,187.800 287.200 C 189.700 287.010,189.852 286.879,189.660 285.600 C 189.566 284.973,183.219 285.086,182.976 285.719 M268.000 291.416 L 268.000 297.631 271.500 297.516 C 274.936 297.402,275.000 297.382,275.000 296.400 C 275.000 295.463,274.855 295.392,272.700 295.280 L 270.400 295.160 270.400 293.580 C 270.400 292.007,270.407 292.000,271.976 292.000 C 273.718 292.000,274.179 291.594,273.799 290.396 C 273.602 289.776,273.192 289.600,271.946 289.600 C 269.117 289.600,269.817 287.445,272.700 287.279 C 274.628 287.168,274.800 287.078,274.800 286.179 C 274.800 285.217,274.741 285.200,271.400 285.200 L 268.000 285.200 268.000 291.416 M294.576 285.719 C 294.466 286.005,294.427 288.750,294.488 291.819 L 294.600 297.400 295.700 297.527 L 296.800 297.653 296.800 294.427 C 296.800 290.398,297.068 290.396,299.698 294.404 C 301.485 297.127,301.950 297.592,302.800 297.504 L 303.800 297.400 303.800 291.400 L 303.800 285.400 302.700 285.273 L 301.600 285.147 301.600 288.350 C 301.600 292.431,301.184 292.636,299.220 289.521 C 298.346 288.134,297.346 286.595,296.997 286.100 C 296.304 285.116,294.892 284.894,294.576 285.719 M317.752 285.781 C 317.392 286.720,317.953 287.200,319.412 287.200 L 320.776 287.200 320.888 292.300 L 321.000 297.400 322.200 297.400 L 323.400 297.400 323.600 292.400 L 323.800 287.400 325.100 287.275 C 326.177 287.171,326.400 286.982,326.400 286.175 C 326.400 284.973,318.205 284.599,317.752 285.781 M93.297 288.206 C 94.943 289.852,95.127 292.840,93.684 294.500 C 92.385 295.995,88.704 295.277,87.665 293.326 C 85.643 289.530,90.345 285.254,93.297 288.206 M110.253 287.909 C 113.357 290.423,112.192 295.200,108.476 295.200 C 105.765 295.200,104.588 293.947,104.631 291.105 C 104.679 287.858,107.918 286.017,110.253 287.909 M203.231 288.369 C 204.709 289.848,204.866 292.500,203.571 294.146 C 202.538 295.459,199.351 295.672,198.290 294.499 C 194.770 290.610,199.546 284.685,203.231 288.369 M218.158 288.100 C 218.732 289.018,218.089 290.067,216.635 290.585 C 215.171 291.107,213.933 288.601,215.086 287.448 C 215.598 286.935,217.709 287.383,218.158 288.100 M241.325 288.104 C 244.382 290.551,241.660 297.415,238.426 295.416 C 237.962 295.129,237.817 287.916,238.267 287.467 C 238.804 286.930,240.228 287.227,241.325 288.104 M258.831 288.369 C 261.458 290.996,259.997 295.200,256.456 295.200 C 253.838 295.200,252.800 294.112,252.800 291.366 C 252.800 287.621,256.329 285.867,258.831 288.369 M209.285 305.384 C 205.710 307.357,206.685 311.226,211.048 312.380 C 213.818 313.112,214.548 314.460,212.578 315.208 C 211.444 315.640,208.944 315.357,208.572 314.755 C 208.090 313.974,207.200 314.429,207.200 315.456 C 207.200 317.022,208.245 317.573,211.245 317.587 C 217.352 317.617,218.122 311.542,212.200 310.055 C 209.767 309.445,209.263 309.021,209.857 308.089 C 210.321 307.361,212.566 307.211,214.300 307.792 C 215.079 308.053,215.200 307.954,215.200 307.057 C 215.200 305.171,211.544 304.136,209.285 305.384 M172.000 311.416 L 172.000 317.631 175.500 317.516 C 178.936 317.402,179.000 317.382,179.000 316.400 C 179.000 315.463,178.855 315.392,176.700 315.280 L 174.400 315.160 174.400 313.580 C 174.400 312.007,174.407 312.000,175.976 312.000 C 177.718 312.000,178.179 311.594,177.799 310.396 C 177.602 309.776,177.192 309.600,175.946 309.600 C 173.117 309.600,173.817 307.445,176.700 307.279 C 178.628 307.168,178.800 307.078,178.800 306.179 C 178.800 305.217,178.741 305.200,175.400 305.200 L 172.000 305.200 172.000 311.416 M184.000 305.374 C 184.000 305.497,184.630 306.807,185.400 308.284 C 186.955 311.265,186.946 311.396,184.976 314.669 C 183.286 317.475,183.282 317.602,184.900 317.593 C 186.064 317.587,186.298 317.378,187.141 315.595 C 188.222 313.309,188.323 313.317,189.588 315.778 C 190.368 317.294,190.717 317.600,191.663 317.600 C 193.132 317.600,193.103 317.153,191.419 313.865 C 189.926 310.951,189.930 310.860,191.676 307.882 C 193.079 305.489,193.077 305.200,191.663 305.200 C 190.718 305.200,190.368 305.506,189.594 307.011 C 188.596 308.953,188.481 308.942,187.305 306.800 C 186.627 305.564,184.000 304.430,184.000 305.374 M198.800 311.400 L 198.800 317.600 200.000 317.600 L 201.200 317.600 201.200 311.400 L 201.200 305.200 200.000 305.200 L 198.800 305.200 198.800 311.400 M220.152 305.781 C 219.792 306.720,220.353 307.200,221.812 307.200 L 223.176 307.200 223.288 312.300 L 223.400 317.400 224.600 317.400 L 225.800 317.400 226.000 312.400 L 226.200 307.400 227.500 307.275 C 228.577 307.171,228.800 306.982,228.800 306.175 C 228.800 304.973,220.605 304.599,220.152 305.781 " stroke="none" fill="#deb88f" fill-rule="evenodd"></path></g></svg>