<svg id="svg" version="1.1" xmlns="http://www.w3.org/2000/svg" xmlns:xlink="http://www.w3.org/1999/xlink" width="400" height="400" viewBox="0, 0, 400,400"><g id="svgg"><path id="path1" d="M195.742 64.201 C 195.049 64.746,193.429 66.661,192.142 68.456 C 183.925 79.906,178.201 87.102,167.700 99.181 C 165.005 102.281,162.800 105.056,162.800 105.347 C 162.800 106.609,164.303 107.316,166.395 107.038 C 168.373 106.776,168.425 106.796,169.219 108.143 C 170.226 109.849,171.820 110.533,174.788 110.533 C 177.668 110.533,177.984 110.314,184.504 103.794 C 187.292 101.006,189.804 98.801,190.087 98.895 C 190.471 99.022,190.666 101.165,190.861 107.432 C 191.160 116.974,191.457 119.208,193.624 128.200 C 195.969 137.929,202.679 153.622,207.247 160.062 C 207.661 160.646,208.000 161.239,208.000 161.380 C 208.000 162.381,217.834 175.664,222.882 181.481 C 226.911 186.124,228.231 187.200,229.900 187.200 C 230.588 187.200,231.392 187.550,231.838 188.043 C 233.015 189.344,235.182 190.290,237.707 190.606 C 241.834 191.121,242.197 189.841,239.079 185.769 C 237.913 184.246,236.208 181.920,235.290 180.600 C 234.373 179.280,233.046 177.390,232.343 176.400 C 231.054 174.587,227.309 168.707,225.081 165.000 C 220.940 158.109,217.238 150.489,215.461 145.200 C 213.672 139.876,212.050 135.467,210.383 131.400 C 209.661 129.640,208.922 127.030,208.739 125.600 C 207.811 118.337,207.508 115.746,207.525 115.200 C 207.747 107.942,208.205 103.186,208.815 101.800 C 209.899 99.339,210.399 97.600,210.413 96.240 C 210.437 93.883,212.101 92.761,212.809 94.624 C 213.375 96.113,215.103 99.930,216.120 101.940 C 217.955 105.566,223.615 108.998,227.764 108.999 C 231.759 109.000,231.725 108.221,227.190 96.000 C 226.496 94.130,225.786 92.150,225.612 91.600 C 224.734 88.831,220.661 78.990,218.372 74.106 C 215.656 68.312,212.418 65.818,205.290 64.030 C 200.628 62.861,197.367 62.919,195.742 64.201 " stroke="none" fill="#8fb5de" fill-rule="evenodd"></path><path id="path2" d="M151.200 214.310 C 151.200 217.193,151.094 217.311,149.191 216.550 C 144.669 214.741,142.056 221.478,145.720 225.500 C 146.598 226.464,148.934 226.754,149.425 225.960 C 149.580 225.709,150.194 225.619,150.849 225.750 L 152.000 225.980 152.000 219.214 C 152.000 215.134,151.841 212.349,151.600 212.200 C 151.351 212.046,151.200 212.840,151.200 214.310 M282.400 219.190 L 282.400 225.980 283.551 225.750 C 284.206 225.619,284.820 225.709,284.975 225.960 C 285.759 227.228,288.972 226.045,289.953 224.126 C 291.670 220.769,288.177 214.063,285.898 216.342 C 285.554 216.686,285.684 216.803,286.420 216.813 C 289.252 216.849,290.657 221.261,288.804 224.300 C 287.697 226.116,285.272 226.186,284.027 224.438 C 282.679 222.545,283.057 218.641,284.716 217.320 C 285.336 216.826,285.307 216.786,284.400 216.888 C 283.448 216.995,283.394 216.890,283.280 214.700 C 283.013 209.577,282.400 212.704,282.400 219.190 M41.949 213.702 C 39.259 216.002,40.831 219.032,45.289 220.139 C 49.139 221.096,48.546 225.619,44.574 225.587 C 42.896 225.574,42.147 225.158,41.123 223.671 C 40.708 223.067,40.386 222.899,40.206 223.190 C 39.621 224.137,42.716 226.400,44.598 226.400 C 50.220 226.400,50.195 221.158,44.562 219.007 C 42.081 218.059,41.600 217.567,41.600 215.973 C 41.600 213.232,45.652 212.542,47.321 214.998 C 48.157 216.229,48.800 216.475,48.800 215.564 C 48.800 213.338,43.925 212.013,41.949 213.702 M66.327 215.084 C 66.238 215.845,65.901 216.251,65.200 216.444 C 64.309 216.690,64.294 216.725,65.057 216.760 C 66.217 216.814,66.400 217.474,66.400 221.610 C 66.400 224.819,66.484 225.214,67.289 225.777 C 68.271 226.465,71.200 226.632,71.200 226.000 C 71.200 225.780,70.510 225.600,69.668 225.600 C 67.553 225.600,67.134 224.684,67.282 220.393 L 67.400 217.000 68.800 216.769 L 70.200 216.539 68.800 216.369 C 67.621 216.227,67.380 216.027,67.273 215.100 C 67.111 213.686,66.491 213.675,66.327 215.084 M169.860 215.200 C 169.666 216.168,169.405 216.411,168.510 216.454 C 167.428 216.508,167.425 216.514,168.400 216.695 C 169.835 216.962,169.987 217.399,169.994 221.284 C 169.999 224.349,170.105 224.867,170.875 225.584 C 171.792 226.438,174.800 226.757,174.800 226.000 C 174.800 225.780,174.076 225.600,173.190 225.600 C 171.200 225.600,170.800 224.798,170.800 220.807 C 170.800 217.185,170.978 216.812,172.743 216.743 L 174.200 216.686 172.600 216.443 C 171.224 216.234,170.982 216.046,170.873 215.100 C 170.706 213.645,170.160 213.699,169.860 215.200 M342.660 215.200 C 342.466 216.168,342.205 216.411,341.310 216.454 C 340.228 216.508,340.225 216.514,341.200 216.695 C 342.635 216.962,342.787 217.399,342.794 221.284 C 342.799 224.349,342.905 224.867,343.675 225.584 C 344.592 226.438,347.600 226.757,347.600 226.000 C 347.600 225.780,346.876 225.600,345.990 225.600 C 344.000 225.600,343.600 224.798,343.600 220.807 C 343.600 217.185,343.778 216.812,345.543 216.743 L 347.000 216.686 345.400 216.443 C 344.024 216.234,343.782 216.046,343.673 215.100 C 343.506 213.645,342.960 213.699,342.660 215.200 M54.800 216.515 C 50.155 218.658,51.347 226.430,56.314 226.387 C 57.751 226.375,59.200 225.666,59.200 224.976 C 59.200 224.791,58.984 224.856,58.720 225.120 C 57.068 226.772,52.614 224.718,52.881 222.426 C 52.997 221.422,53.076 221.398,56.500 221.284 L 60.000 221.169 60.000 219.854 C 60.000 217.399,57.025 215.489,54.800 216.515 M100.183 216.745 C 95.912 219.350,97.239 226.400,102.000 226.400 C 106.903 226.400,108.031 218.509,103.404 216.576 C 101.669 215.851,101.648 215.852,100.183 216.745 M125.836 216.812 C 124.780 217.339,124.119 217.465,123.800 217.200 C 122.965 216.507,122.800 217.244,122.800 221.667 C 122.800 225.252,122.904 226.000,123.400 226.000 C 123.887 226.000,124.002 225.339,124.013 222.500 C 124.028 218.396,124.334 217.828,126.908 217.140 C 127.923 216.869,128.663 216.501,128.553 216.323 C 128.248 215.831,127.552 215.956,125.836 216.812 M158.173 216.604 C 156.799 217.207,155.750 218.283,156.147 218.681 C 156.291 218.824,156.911 218.460,157.526 217.871 C 159.543 215.939,162.400 216.849,162.400 219.423 L 162.400 220.800 160.380 220.800 C 157.327 220.800,156.000 221.645,156.000 223.588 C 156.000 226.053,158.908 227.353,160.955 225.803 C 161.485 225.402,161.925 225.346,162.429 225.615 C 163.720 226.306,163.803 226.047,163.567 222.071 C 163.302 217.592,163.195 217.324,161.364 216.559 C 159.795 215.904,159.768 215.904,158.173 216.604 M181.203 216.722 C 176.593 218.976,178.224 226.426,183.319 226.391 C 184.483 226.383,187.237 224.830,186.124 224.809 C 185.862 224.804,185.536 224.980,185.400 225.200 C 184.540 226.592,180.930 225.388,179.882 223.360 C 178.953 221.562,179.549 221.200,183.437 221.200 C 187.095 221.200,187.400 220.973,186.535 218.891 C 185.537 216.491,183.428 215.633,181.203 216.722 M206.600 216.839 C 205.383 217.453,204.832 217.544,204.300 217.220 C 203.649 216.823,203.600 217.117,203.600 221.397 C 203.600 226.793,204.257 227.613,204.460 222.471 C 204.558 220.003,204.781 218.769,205.200 218.366 C 206.005 217.594,207.852 216.800,208.842 216.800 C 209.285 216.800,209.536 216.620,209.400 216.400 C 209.045 215.825,208.413 215.924,206.600 216.839 M215.773 216.604 C 214.399 217.207,213.350 218.283,213.747 218.681 C 213.891 218.824,214.511 218.460,215.126 217.871 C 217.143 215.939,220.000 216.849,220.000 219.423 L 220.000 220.800 217.980 220.800 C 214.927 220.800,213.600 221.645,213.600 223.588 C 213.600 226.053,216.508 227.353,218.555 225.803 C 219.085 225.402,219.525 225.346,220.029 225.615 C 221.320 226.306,221.403 226.047,221.167 222.071 C 220.902 217.592,220.795 217.324,218.964 216.559 C 217.395 215.904,217.368 215.904,215.773 216.604 M228.600 216.400 C 228.464 216.620,228.678 216.806,229.076 216.813 C 231.109 216.848,232.000 218.734,232.000 222.997 C 232.000 225.195,232.145 226.358,232.400 226.200 C 233.027 225.812,232.892 219.339,232.230 218.058 C 231.445 216.539,229.159 215.495,228.600 216.400 M238.395 216.900 C 234.606 219.477,236.021 226.400,240.338 226.400 C 241.006 226.400,241.664 226.220,241.800 226.000 C 242.276 225.230,243.200 225.590,243.200 226.546 C 243.200 228.758,238.940 231.019,238.313 229.140 C 238.229 228.887,237.899 228.772,237.580 228.885 C 236.541 229.254,239.787 230.540,240.992 230.238 C 243.594 229.585,244.000 228.483,244.000 222.080 C 244.000 216.407,243.983 216.292,243.241 216.962 C 242.656 217.492,242.440 217.529,242.296 217.124 C 242.194 216.836,241.961 216.739,241.779 216.909 C 241.597 217.079,241.842 217.494,242.324 217.832 C 243.527 218.674,243.633 223.884,242.469 224.938 C 241.419 225.888,239.097 225.791,238.162 224.758 C 236.163 222.549,237.703 216.800,240.293 216.800 C 240.827 216.800,241.138 216.624,241.000 216.400 C 240.613 215.774,239.830 215.924,238.395 216.900 M250.375 216.629 C 245.819 219.044,247.188 226.427,252.185 226.387 C 253.837 226.374,255.601 225.450,255.016 224.904 C 254.837 224.737,254.610 224.825,254.512 225.100 C 254.183 226.020,250.653 225.725,249.722 224.700 C 247.360 222.099,248.159 221.200,252.833 221.200 C 255.759 221.200,256.000 221.138,256.000 220.380 C 256.000 218.899,254.817 217.218,253.342 216.601 C 251.686 215.910,251.731 215.909,250.375 216.629 M273.373 216.604 C 271.999 217.207,270.950 218.283,271.347 218.681 C 271.491 218.824,272.111 218.460,272.726 217.871 C 274.743 215.939,277.600 216.849,277.600 219.423 L 277.600 220.800 275.580 220.800 C 272.527 220.800,271.200 221.645,271.200 223.588 C 271.200 226.053,274.108 227.353,276.155 225.803 C 276.685 225.402,277.125 225.346,277.629 225.615 C 278.920 226.306,279.003 226.047,278.767 222.071 C 278.502 217.592,278.395 217.324,276.564 216.559 C 274.995 215.904,274.968 215.904,273.373 216.604 M296.183 216.745 C 291.912 219.350,293.239 226.400,298.000 226.400 C 302.903 226.400,304.031 218.509,299.404 216.576 C 297.669 215.851,297.648 215.852,296.183 216.745 M319.383 216.735 C 315.015 219.436,316.412 226.424,321.313 226.387 C 322.976 226.375,324.805 225.472,324.264 224.931 C 324.112 224.778,323.774 224.866,323.513 225.127 C 322.458 226.182,319.715 225.697,318.620 224.262 C 316.695 221.738,317.255 221.200,321.809 221.200 C 325.155 221.200,325.323 221.078,324.765 219.059 C 324.087 216.602,321.444 215.461,319.383 216.735 M353.783 216.745 C 349.512 219.350,350.839 226.400,355.600 226.400 C 360.503 226.400,361.631 218.509,357.004 216.576 C 355.269 215.851,355.248 215.852,353.783 216.745 M93.844 217.804 C 93.133 219.345,92.363 221.117,91.542 223.101 C 90.989 224.439,90.499 224.584,89.934 223.576 C 89.257 222.367,87.200 217.562,87.200 217.190 C 87.200 216.975,86.934 216.800,86.610 216.800 C 85.904 216.800,86.054 217.259,88.242 221.806 C 90.402 226.297,89.966 229.191,87.050 229.708 C 86.288 229.844,86.273 229.892,86.903 230.174 C 88.436 230.859,89.615 229.332,92.362 223.100 C 93.984 219.422,94.897 217.397,95.054 217.128 C 95.141 216.978,95.050 216.754,94.850 216.631 C 94.651 216.508,94.198 217.035,93.844 217.804 M109.839 216.899 C 109.191 218.297,109.738 223.858,110.642 225.073 C 111.506 226.235,114.800 226.988,114.800 226.023 C 114.800 225.790,114.174 225.600,113.409 225.600 C 111.342 225.600,110.655 224.288,110.383 219.820 C 110.243 217.517,110.045 216.454,109.839 216.899 M116.800 219.492 C 116.800 221.805,116.597 223.030,116.026 224.148 C 115.452 225.275,115.397 225.610,115.814 225.450 C 116.122 225.332,116.481 225.407,116.611 225.617 C 116.741 225.828,117.017 226.000,117.224 226.000 C 117.736 226.000,117.713 216.917,117.200 216.600 C 116.946 216.443,116.800 217.501,116.800 219.492 M225.100 216.631 C 224.645 217.090,224.737 225.914,225.200 226.200 C 225.454 226.357,225.600 225.264,225.600 223.204 C 225.600 221.079,225.810 219.553,226.210 218.780 C 226.737 217.762,226.741 217.600,226.240 217.600 C 225.920 217.600,225.600 217.314,225.529 216.964 C 225.458 216.614,225.265 216.464,225.100 216.631 M312.682 217.331 C 312.307 217.904,312.000 218.561,312.000 218.791 C 312.000 219.022,311.841 219.523,311.647 219.905 C 311.452 220.287,311.071 221.140,310.800 221.800 C 309.318 225.408,309.160 225.297,306.697 218.900 C 305.916 216.870,304.859 215.873,305.425 217.700 C 305.732 218.690,307.054 221.801,307.633 222.895 C 307.835 223.277,308.004 223.817,308.009 224.095 C 308.014 224.373,308.364 225.050,308.787 225.600 L 309.556 226.600 310.216 225.000 C 311.092 222.876,311.728 221.399,312.774 219.061 C 313.761 216.853,313.704 215.772,312.682 217.331 M58.164 217.873 C 60.074 219.783,59.495 220.580,56.094 220.718 C 52.890 220.847,52.319 220.450,53.235 218.731 C 54.398 216.547,56.476 216.185,58.164 217.873 M103.880 217.700 C 105.847 219.859,106.110 221.923,104.687 224.041 C 102.605 227.139,98.400 225.407,98.400 221.451 C 98.400 217.801,101.832 215.452,103.880 217.700 M150.145 217.855 C 151.582 219.292,151.689 223.228,150.330 224.674 C 149.362 225.705,147.071 225.945,146.267 225.100 C 142.709 221.364,146.526 214.235,150.145 217.855 M184.435 217.313 C 185.374 218.034,186.031 219.455,185.756 220.171 C 185.444 220.983,180.029 221.103,179.953 220.300 C 179.710 217.743,182.539 215.857,184.435 217.313 M253.170 217.184 C 254.208 217.739,255.230 219.456,254.953 220.179 C 254.502 221.354,248.800 221.053,248.800 219.855 C 248.800 217.866,251.435 216.255,253.170 217.184 M299.880 217.700 C 301.847 219.859,302.110 221.923,300.687 224.041 C 298.605 227.139,294.400 225.407,294.400 221.451 C 294.400 217.801,297.832 215.452,299.880 217.700 M322.997 217.672 C 323.624 218.218,324.000 218.967,324.000 219.672 L 324.000 220.800 321.000 220.800 C 318.052 220.800,318.000 220.782,318.000 219.781 C 318.000 217.384,321.141 216.059,322.997 217.672 M357.480 217.700 C 359.447 219.859,359.710 221.923,358.287 224.041 C 356.205 227.139,352.000 225.407,352.000 221.451 C 352.000 217.801,355.432 215.452,357.480 217.700 M162.322 222.862 C 162.470 224.640,161.372 225.600,159.191 225.600 C 156.069 225.600,155.734 222.075,158.800 221.484 C 161.381 220.987,162.192 221.304,162.322 222.862 M219.922 222.862 C 220.070 224.640,218.972 225.600,216.791 225.600 C 213.669 225.600,213.334 222.075,216.400 221.484 C 218.981 220.987,219.792 221.304,219.922 222.862 M277.522 222.862 C 277.670 224.640,276.572 225.600,274.391 225.600 C 271.269 225.600,270.934 222.075,274.000 221.484 C 276.581 220.987,277.392 221.304,277.522 222.862 M254.400 241.200 C 254.400 243.877,254.432 243.844,252.739 242.968 C 248.778 240.920,245.696 248.387,249.098 251.789 C 250.140 252.831,252.505 253.201,253.000 252.400 C 253.147 252.162,252.676 252.000,251.839 252.000 C 250.080 252.000,248.942 250.863,248.707 248.867 C 248.205 244.615,251.070 241.729,253.525 244.016 C 254.556 244.977,254.862 250.946,253.900 251.336 C 253.297 251.581,254.350 252.466,255.000 252.261 C 255.729 252.030,255.738 238.800,255.010 238.800 C 254.531 238.800,254.400 239.316,254.400 241.200 M262.800 244.000 C 262.800 246.667,262.958 248.400,263.200 248.400 C 263.442 248.400,263.600 246.667,263.600 244.000 C 263.600 241.333,263.442 239.600,263.200 239.600 C 262.958 239.600,262.800 241.333,262.800 244.000 M158.327 241.500 C 158.232 242.318,157.944 242.641,157.200 242.761 L 156.200 242.922 157.200 243.178 C 158.161 243.423,158.208 243.584,158.400 247.277 C 158.638 251.848,159.200 252.800,161.662 252.800 C 163.636 252.800,163.674 252.088,161.709 251.924 C 158.187 251.631,158.002 243.287,161.514 243.136 L 163.000 243.072 161.602 242.903 C 159.931 242.702,159.200 242.168,159.200 241.151 C 159.200 239.978,158.468 240.270,158.327 241.500 M192.727 241.500 C 192.632 242.318,192.344 242.641,191.600 242.761 L 190.600 242.922 191.600 243.178 C 192.561 243.423,192.608 243.584,192.800 247.277 C 193.038 251.848,193.600 252.800,196.062 252.800 C 198.036 252.800,198.074 252.088,196.109 251.924 C 192.587 251.631,192.402 243.287,195.914 243.136 L 197.400 243.072 196.002 242.903 C 194.331 242.702,193.600 242.168,193.600 241.151 C 193.600 239.978,192.868 240.270,192.727 241.500 M227.460 241.600 C 227.266 242.568,227.005 242.811,226.110 242.854 C 225.028 242.908,225.025 242.914,226.000 243.095 C 227.435 243.362,227.587 243.799,227.594 247.684 C 227.599 250.749,227.705 251.267,228.475 251.984 C 229.392 252.838,232.400 253.157,232.400 252.400 C 232.400 252.180,231.676 252.000,230.790 252.000 C 228.800 252.000,228.400 251.198,228.400 247.207 C 228.400 243.585,228.578 243.212,230.343 243.143 L 231.800 243.086 230.200 242.843 C 228.824 242.634,228.582 242.446,228.473 241.500 C 228.306 240.045,227.760 240.099,227.460 241.600 M134.897 242.930 C 131.057 245.062,132.119 252.800,136.251 252.800 C 136.967 252.800,137.664 252.620,137.800 252.400 C 137.946 252.163,137.494 252.000,136.693 252.000 C 134.327 252.000,133.338 250.205,133.542 246.281 C 133.668 243.845,136.634 242.440,138.325 244.016 C 139.356 244.977,139.660 250.919,138.700 251.367 C 138.300 251.553,138.300 251.647,138.700 251.833 C 139.529 252.220,139.274 254.191,138.274 255.130 C 137.313 256.034,135.047 256.323,134.600 255.600 C 134.312 255.133,133.599 255.062,133.603 255.500 C 133.607 255.888,135.569 256.800,136.400 256.800 C 139.384 256.800,140.200 255.048,140.200 248.642 C 140.200 243.688,140.157 243.404,139.420 243.469 C 138.991 243.507,138.145 243.282,137.540 242.969 C 136.222 242.287,136.058 242.285,134.897 242.930 M146.583 243.135 C 142.215 245.836,143.612 252.824,148.513 252.787 C 150.176 252.775,152.005 251.872,151.464 251.331 C 151.312 251.178,150.974 251.266,150.713 251.527 C 149.658 252.582,146.915 252.097,145.820 250.662 C 143.895 248.138,144.455 247.600,149.009 247.600 C 152.355 247.600,152.523 247.478,151.965 245.459 C 151.287 243.002,148.644 241.861,146.583 243.135 M181.236 243.119 C 178.270 244.600,179.361 247.820,182.881 247.971 C 184.077 248.022,185.577 248.897,185.828 249.689 C 186.499 251.804,181.962 253.000,180.344 251.136 C 179.932 250.661,179.461 250.407,179.297 250.572 C 177.678 252.205,184.003 253.430,185.742 251.819 C 187.750 249.958,185.789 247.200,182.457 247.200 C 181.703 247.200,180.000 245.814,180.000 245.200 C 180.000 242.997,184.226 242.686,185.916 244.765 C 186.375 245.329,186.418 245.311,186.311 244.601 C 186.058 242.939,183.244 242.117,181.236 243.119 M204.005 243.121 C 203.238 243.496,202.542 244.162,202.458 244.601 C 202.326 245.292,202.454 245.252,203.407 244.300 C 205.023 242.688,207.403 242.937,208.413 244.824 C 209.251 246.390,208.553 247.200,206.368 247.200 C 202.342 247.200,200.439 249.530,202.655 251.745 C 203.738 252.829,206.094 253.220,206.600 252.400 C 206.749 252.159,206.207 252.000,205.233 252.000 C 201.582 252.000,201.687 248.336,205.353 247.786 C 208.618 247.297,209.880 248.690,208.000 250.708 C 207.088 251.687,206.970 252.150,207.700 251.886 C 207.975 251.786,208.515 251.979,208.900 252.314 C 209.734 253.041,209.976 245.850,209.168 244.340 C 208.280 242.681,206.003 242.143,204.005 243.121 M218.548 242.976 C 217.859 243.276,217.159 243.743,216.991 244.015 C 216.770 244.371,216.481 244.243,215.952 243.554 C 215.228 242.613,215.218 242.666,215.209 247.500 C 215.203 250.506,215.355 252.400,215.600 252.400 C 215.834 252.400,216.004 251.027,216.009 249.100 C 216.020 244.978,217.356 243.200,220.442 243.200 C 220.885 243.200,221.136 243.020,221.000 242.800 C 220.674 242.272,220.065 242.316,218.548 242.976 M238.803 243.122 C 234.193 245.376,235.824 252.826,240.919 252.791 C 242.083 252.783,244.837 251.230,243.724 251.209 C 243.462 251.204,243.136 251.380,243.000 251.600 C 242.140 252.992,238.530 251.788,237.482 249.760 C 236.553 247.962,237.149 247.600,241.037 247.600 C 244.695 247.600,245.000 247.373,244.135 245.291 C 243.137 242.891,241.028 242.033,238.803 243.122 M150.197 244.072 C 150.824 244.618,151.200 245.367,151.200 246.072 L 151.200 247.200 148.200 247.200 C 145.252 247.200,145.200 247.182,145.200 246.181 C 145.200 243.784,148.341 242.459,150.197 244.072 M242.035 243.713 C 242.974 244.434,243.631 245.855,243.356 246.571 C 243.044 247.383,237.629 247.503,237.553 246.700 C 237.310 244.143,240.139 242.257,242.035 243.713 M262.800 252.200 C 262.800 252.567,262.993 252.802,263.230 252.723 C 263.466 252.645,263.660 252.409,263.660 252.200 C 263.660 251.991,263.466 251.755,263.230 251.677 C 262.993 251.598,262.800 251.833,262.800 252.200 " stroke="none" fill="#545454" fill-rule="evenodd"></path><path id="path3" d="M197.800 62.801 C 197.229 63.046,197.677 63.152,199.367 63.172 C 200.668 63.187,201.658 63.134,201.567 63.053 C 201.134 62.671,198.512 62.496,197.800 62.801 M194.778 64.699 L 193.400 66.198 194.800 65.002 C 195.570 64.344,196.371 63.670,196.580 63.503 C 196.816 63.315,196.808 63.200,196.558 63.200 C 196.338 63.200,195.537 63.875,194.778 64.699 M203.400 63.600 C 203.840 63.789,204.470 63.944,204.800 63.944 C 205.178 63.944,205.104 63.817,204.600 63.600 C 204.160 63.411,203.530 63.256,203.200 63.256 C 202.822 63.256,202.896 63.383,203.400 63.600 M206.600 64.400 C 207.040 64.589,207.670 64.744,208.000 64.744 C 208.378 64.744,208.304 64.617,207.800 64.400 C 207.360 64.211,206.730 64.056,206.400 64.056 C 206.022 64.056,206.096 64.183,206.600 64.400 M192.744 67.100 C 191.475 68.632,191.019 69.342,191.481 69.065 C 191.993 68.758,193.769 66.400,193.489 66.400 C 193.398 66.400,193.063 66.715,192.744 67.100 M214.254 68.135 C 215.470 69.234,216.854 71.044,217.646 72.571 C 218.381 73.990,219.049 75.084,219.130 75.003 C 219.812 74.321,214.967 67.736,213.033 66.718 C 212.575 66.476,213.124 67.114,214.254 68.135 M189.529 71.500 C 188.387 72.843,187.046 74.942,187.516 74.652 C 187.777 74.491,188.541 73.558,189.214 72.580 C 190.455 70.776,190.617 70.220,189.529 71.500 M185.775 76.668 C 185.159 77.476,184.859 78.011,185.109 77.856 C 185.621 77.540,187.353 75.200,187.075 75.200 C 186.976 75.200,186.391 75.861,185.775 76.668 M182.977 80.300 C 180.919 82.873,180.432 83.707,181.985 82.000 C 183.453 80.386,184.937 78.400,184.675 78.400 C 184.577 78.400,183.812 79.255,182.977 80.300 M176.824 87.893 C 175.847 89.130,175.246 90.019,175.488 89.869 C 176.193 89.434,179.308 85.598,178.937 85.622 C 178.752 85.635,177.801 86.656,176.824 87.893 M174.400 90.720 C 174.400 90.896,173.461 92.111,172.314 93.420 C 171.167 94.729,170.647 95.440,171.159 95.000 C 172.674 93.697,175.311 90.400,174.837 90.400 C 174.597 90.400,174.400 90.544,174.400 90.720 M225.612 91.600 C 225.612 91.930,225.787 92.470,226.000 92.800 C 226.345 93.333,226.388 93.333,226.388 92.800 C 226.388 92.470,226.213 91.930,226.000 91.600 C 225.655 91.067,225.612 91.067,225.612 91.600 M211.823 94.167 C 212.661 94.780,213.040 94.713,212.616 94.027 C 212.471 93.792,212.059 93.600,211.700 93.600 C 211.154 93.600,211.174 93.693,211.823 94.167 M167.800 98.461 C 166.700 99.790,165.200 101.580,164.467 102.438 C 163.734 103.297,163.210 104.000,163.302 104.000 C 163.395 104.000,165.041 102.200,166.961 100.000 C 168.880 97.800,170.304 96.010,170.125 96.023 C 169.946 96.035,168.900 97.133,167.800 98.461 M209.829 99.029 C 209.681 99.615,209.651 100.184,209.761 100.294 C 209.871 100.404,210.081 100.015,210.229 99.429 C 210.376 98.842,210.406 98.273,210.296 98.163 C 210.186 98.053,209.976 98.442,209.829 99.029 M184.325 103.969 C 181.477 106.812,178.753 109.413,178.273 109.748 C 177.793 110.084,177.606 110.367,177.857 110.379 C 178.108 110.391,180.841 107.880,183.930 104.800 C 187.019 101.720,189.738 99.200,189.973 99.200 C 190.257 99.200,190.410 101.377,190.430 105.700 C 190.446 109.275,190.596 113.010,190.764 114.000 C 190.931 114.990,190.993 112.200,190.902 107.800 C 190.673 96.740,191.238 97.069,184.325 103.969 M215.800 102.000 C 216.141 102.660,216.511 103.200,216.621 103.200 C 216.731 103.200,216.541 102.660,216.200 102.000 C 215.859 101.340,215.489 100.800,215.379 100.800 C 215.269 100.800,215.459 101.340,215.800 102.000 M208.273 102.953 C 208.123 103.345,208.011 103.966,208.025 104.333 C 208.042 104.775,208.181 104.674,208.437 104.034 C 208.649 103.503,208.761 102.882,208.685 102.654 C 208.609 102.427,208.424 102.561,208.273 102.953 M217.682 104.621 C 218.277 105.273,219.357 106.128,220.082 106.521 C 221.351 107.208,221.363 107.208,220.409 106.517 C 219.865 106.123,218.785 105.268,218.009 104.618 L 216.600 103.436 217.682 104.621 M162.667 104.667 C 162.121 105.212,162.428 106.225,163.300 106.760 C 164.193 107.309,164.194 107.306,163.451 106.472 C 163.040 106.009,162.809 105.353,162.939 105.015 C 163.191 104.357,163.097 104.236,162.667 104.667 M230.655 106.045 C 231.079 108.684,230.353 109.336,227.258 109.100 C 225.724 108.982,224.938 109.033,225.400 109.220 C 229.129 110.729,232.657 108.104,230.805 105.200 C 230.541 104.785,230.494 105.046,230.655 106.045 M167.504 107.083 C 168.002 107.179,168.679 107.779,169.009 108.417 C 169.593 109.546,171.072 110.662,171.464 110.269 C 171.572 110.161,171.300 109.959,170.859 109.819 C 170.419 109.679,169.691 108.943,169.243 108.182 C 168.664 107.201,168.162 106.816,167.513 106.854 L 166.600 106.909 167.504 107.083 M172.600 110.826 C 173.606 111.225,175.565 111.236,176.556 110.847 C 177.003 110.671,176.187 110.542,174.556 110.529 C 172.809 110.516,172.093 110.625,172.600 110.826 M207.521 113.500 C 207.432 114.545,207.486 115.940,207.639 116.600 C 207.830 117.422,207.931 116.825,207.959 114.700 C 208.005 111.241,207.766 110.587,207.521 113.500 M191.268 118.400 C 191.262 118.950,191.411 119.760,191.600 120.200 L 191.944 121.000 191.932 120.200 C 191.926 119.760,191.776 118.950,191.600 118.400 L 191.280 117.400 191.268 118.400 M208.095 120.600 C 208.095 121.260,208.232 122.340,208.400 123.000 L 208.705 124.200 208.705 123.000 C 208.705 122.340,208.568 121.260,208.400 120.600 L 208.095 119.400 208.095 120.600 M192.056 123.000 C 192.056 123.440,192.211 124.160,192.400 124.600 L 192.744 125.400 192.744 124.600 C 192.744 124.160,192.589 123.440,192.400 123.000 L 192.056 122.200 192.056 123.000 M208.806 126.633 C 208.809 127.275,208.996 128.070,209.221 128.400 C 209.514 128.830,209.554 128.546,209.362 127.400 C 209.030 125.416,208.798 125.096,208.806 126.633 M192.856 126.400 C 192.856 126.730,193.011 127.360,193.200 127.800 C 193.417 128.304,193.544 128.378,193.544 128.000 C 193.544 127.670,193.389 127.040,193.200 126.600 C 192.983 126.096,192.856 126.022,192.856 126.400 M193.656 129.600 C 193.656 129.930,193.811 130.560,194.000 131.000 C 194.217 131.504,194.344 131.578,194.344 131.200 C 194.344 130.870,194.189 130.240,194.000 129.800 C 193.783 129.296,193.656 129.222,193.656 129.600 M215.212 144.400 C 215.212 144.730,215.387 145.270,215.600 145.600 C 215.945 146.133,215.988 146.133,215.988 145.600 C 215.988 145.270,215.813 144.730,215.600 144.400 C 215.255 143.867,215.212 143.867,215.212 144.400 M216.012 146.800 C 216.012 147.130,216.187 147.670,216.400 148.000 C 216.745 148.533,216.788 148.533,216.788 148.000 C 216.788 147.670,216.613 147.130,216.400 146.800 C 216.055 146.267,216.012 146.267,216.012 146.800 M203.800 154.800 C 204.141 155.460,204.511 156.000,204.621 156.000 C 204.731 156.000,204.541 155.460,204.200 154.800 C 203.859 154.140,203.489 153.600,203.379 153.600 C 203.269 153.600,203.459 154.140,203.800 154.800 M206.159 159.100 C 206.889 160.484,207.970 161.899,207.987 161.491 C 208.002 161.141,205.977 158.000,205.737 158.000 C 205.650 158.000,205.840 158.495,206.159 159.100 M222.200 160.000 C 222.541 160.660,222.911 161.200,223.021 161.200 C 223.131 161.200,222.941 160.660,222.600 160.000 C 222.259 159.340,221.889 158.800,221.779 158.800 C 221.669 158.800,221.859 159.340,222.200 160.000 M223.209 161.900 C 223.214 162.065,223.585 162.650,224.033 163.200 L 224.848 164.200 224.214 162.900 C 223.611 161.665,223.189 161.245,223.209 161.900 M225.400 165.600 C 225.741 166.260,226.111 166.800,226.221 166.800 C 226.331 166.800,226.141 166.260,225.800 165.600 C 225.459 164.940,225.089 164.400,224.979 164.400 C 224.869 164.400,225.059 164.940,225.400 165.600 M213.143 169.718 C 213.840 170.731,214.622 171.690,214.880 171.850 C 215.139 172.009,214.735 171.284,213.984 170.237 C 212.205 167.760,211.494 167.321,213.143 169.718 M228.808 171.000 C 230.297 173.517,233.627 178.370,234.041 178.625 C 234.398 178.846,228.581 170.018,228.094 169.600 C 227.966 169.490,228.287 170.120,228.808 171.000 M217.000 174.800 C 218.016 176.120,218.937 177.200,219.047 177.200 C 219.157 177.200,218.416 176.120,217.400 174.800 C 216.384 173.480,215.463 172.400,215.353 172.400 C 215.243 172.400,215.984 173.480,217.000 174.800 M220.027 178.574 C 221.330 180.290,225.840 185.435,226.800 186.299 C 228.816 188.113,228.304 187.134,226.070 184.900 C 224.804 183.635,222.786 181.508,221.584 180.174 C 220.383 178.839,219.682 178.119,220.027 178.574 M236.740 182.716 C 237.233 183.409,237.844 184.104,238.097 184.260 C 238.350 184.417,238.154 183.977,237.660 183.284 C 237.167 182.591,236.556 181.896,236.303 181.740 C 236.050 181.583,236.246 182.023,236.740 182.716 M239.191 185.988 C 239.657 186.641,240.242 187.302,240.491 187.456 C 240.741 187.611,240.441 187.076,239.825 186.268 C 238.488 184.515,237.984 184.292,239.191 185.988 M229.800 187.491 C 230.460 187.585,231.450 188.076,232.000 188.582 C 233.142 189.633,234.783 190.551,235.047 190.286 C 235.145 190.188,234.698 189.889,234.052 189.622 C 233.407 189.354,232.470 188.700,231.970 188.168 C 231.351 187.509,230.668 187.219,229.830 187.260 L 228.600 187.320 229.800 187.491 M241.085 188.802 C 241.475 190.295,240.464 190.913,238.014 190.677 C 236.591 190.541,236.157 190.582,236.800 190.793 C 239.749 191.759,243.471 189.604,241.237 188.223 C 241.038 188.100,240.969 188.360,241.085 188.802 M150.849 212.111 C 150.602 212.358,150.400 213.443,150.400 214.523 C 150.400 215.927,150.258 216.432,149.900 216.298 C 148.247 215.677,147.647 215.727,148.986 216.374 C 151.038 217.367,151.200 217.219,151.200 214.353 C 151.200 212.855,151.350 212.046,151.600 212.200 C 151.841 212.349,152.000 215.134,152.000 219.214 L 152.000 225.980 150.849 225.750 C 150.194 225.619,149.580 225.709,149.425 225.960 C 149.275 226.202,148.565 226.400,147.846 226.400 C 143.729 226.400,142.512 218.684,146.305 216.626 C 146.953 216.275,147.145 216.025,146.775 216.016 C 144.329 215.953,142.769 220.837,144.167 224.182 C 145.089 226.389,146.305 226.931,149.593 226.601 L 152.400 226.319 152.400 219.202 C 152.400 211.957,152.149 210.811,150.849 212.111 M282.177 212.515 C 282.068 212.799,282.029 215.994,282.090 219.615 L 282.200 226.200 284.936 226.551 C 287.361 226.863,287.793 226.813,288.736 226.115 C 293.116 222.875,290.369 214.278,285.496 215.976 C 284.828 216.209,284.217 216.400,284.140 216.400 C 284.063 216.400,284.000 215.410,284.000 214.200 C 284.000 212.024,282.793 210.909,282.177 212.515 M42.143 212.797 C 38.575 214.236,39.734 218.783,44.033 220.211 C 47.284 221.291,48.328 222.872,46.800 224.400 C 45.265 225.935,43.037 225.368,41.439 223.035 C 40.702 221.957,39.447 222.469,39.814 223.698 C 41.143 228.162,49.200 227.590,49.200 223.032 C 49.200 221.153,47.938 219.784,45.296 218.795 C 42.454 217.732,42.000 217.360,42.000 216.095 C 42.000 213.470,46.240 213.274,47.220 215.853 C 47.655 216.997,48.908 217.019,49.126 215.886 C 49.554 213.666,44.991 211.647,42.143 212.797 M283.280 214.700 C 283.394 216.890,283.448 216.995,284.400 216.888 C 285.307 216.786,285.336 216.826,284.716 217.320 C 283.057 218.641,282.679 222.545,284.027 224.438 C 285.272 226.186,287.697 226.116,288.804 224.300 C 290.657 221.261,289.252 216.849,286.420 216.813 C 285.684 216.803,285.554 216.686,285.898 216.342 C 288.177 214.063,291.670 220.769,289.953 224.126 C 288.972 226.045,285.759 227.228,284.975 225.960 C 284.820 225.709,284.206 225.619,283.551 225.750 L 282.400 225.980 282.400 219.190 C 282.400 212.704,283.013 209.577,283.280 214.700 M47.569 214.031 C 48.827 215.289,49.001 215.666,48.535 216.131 C 48.390 216.277,47.843 215.767,47.321 214.998 C 45.652 212.542,41.600 213.232,41.600 215.973 C 41.600 217.567,42.081 218.059,44.562 219.007 C 50.195 221.158,50.220 226.400,44.598 226.400 C 42.716 226.400,39.621 224.137,40.206 223.190 C 40.386 222.899,40.708 223.067,41.123 223.671 C 42.147 225.158,42.896 225.574,44.574 225.587 C 48.546 225.619,49.139 221.096,45.289 220.139 C 43.210 219.623,41.039 218.131,40.740 217.014 C 39.788 213.453,44.802 211.263,47.569 214.031 M66.000 214.557 C 66.000 215.539,65.341 216.000,63.938 216.000 C 62.645 216.000,63.212 217.360,64.605 217.600 L 65.800 217.806 65.915 221.486 C 66.052 225.880,66.831 226.936,69.778 226.719 C 71.954 226.559,72.048 225.454,69.901 225.276 C 67.932 225.113,67.536 224.296,67.683 220.694 L 67.800 217.800 69.500 217.677 C 71.616 217.524,72.100 216.000,70.033 216.000 C 68.258 216.000,67.600 215.610,67.600 214.557 C 67.600 213.867,67.377 213.600,66.800 213.600 C 66.223 213.600,66.000 213.867,66.000 214.557 M169.527 214.700 C 169.421 215.621,169.185 215.821,168.076 215.927 C 166.366 216.091,166.459 217.299,168.205 217.599 L 169.400 217.805 169.600 221.403 C 169.862 226.112,170.141 226.556,172.850 226.581 C 174.566 226.596,175.006 226.464,175.119 225.900 C 175.233 225.326,174.968 225.200,173.643 225.200 C 171.536 225.200,171.131 224.427,171.283 220.694 L 171.400 217.800 172.996 217.600 C 175.363 217.303,175.456 216.092,173.125 215.924 C 171.577 215.813,171.387 215.687,171.273 214.700 C 171.186 213.938,170.917 213.600,170.400 213.600 C 169.883 213.600,169.614 213.938,169.527 214.700 M342.327 214.700 C 342.221 215.621,341.985 215.821,340.876 215.927 C 339.166 216.091,339.259 217.299,341.005 217.599 L 342.200 217.805 342.400 221.403 C 342.662 226.112,342.941 226.556,345.650 226.581 C 347.366 226.596,347.806 226.464,347.919 225.900 C 348.033 225.326,347.768 225.200,346.443 225.200 C 344.336 225.200,343.931 224.427,344.083 220.694 L 344.200 217.800 345.796 217.600 C 348.163 217.303,348.256 216.092,345.925 215.924 C 344.377 215.813,344.187 215.687,344.073 214.700 C 343.986 213.938,343.717 213.600,343.200 213.600 C 342.683 213.600,342.414 213.938,342.327 214.700 M67.273 215.100 C 67.380 216.027,67.621 216.227,68.800 216.369 L 70.200 216.539 68.800 216.769 L 67.400 217.000 67.282 220.393 C 67.134 224.684,67.553 225.600,69.668 225.600 C 70.510 225.600,71.200 225.780,71.200 226.000 C 71.200 226.632,68.271 226.465,67.289 225.777 C 66.484 225.214,66.400 224.819,66.400 221.610 C 66.400 217.474,66.217 216.814,65.057 216.760 C 64.294 216.725,64.309 216.690,65.200 216.444 C 65.901 216.251,66.238 215.845,66.327 215.084 C 66.491 213.675,67.111 213.686,67.273 215.100 M170.873 215.100 C 170.982 216.046,171.224 216.234,172.600 216.443 L 174.200 216.686 172.743 216.743 C 170.978 216.812,170.800 217.185,170.800 220.807 C 170.800 224.798,171.200 225.600,173.190 225.600 C 174.076 225.600,174.800 225.780,174.800 226.000 C 174.800 226.757,171.792 226.438,170.875 225.584 C 170.105 224.867,169.999 224.349,169.994 221.284 C 169.987 217.399,169.835 216.962,168.400 216.695 C 167.425 216.514,167.428 216.508,168.510 216.454 C 169.405 216.411,169.666 216.168,169.860 215.200 C 170.160 213.699,170.706 213.645,170.873 215.100 M343.673 215.100 C 343.782 216.046,344.024 216.234,345.400 216.443 L 347.000 216.686 345.543 216.743 C 343.778 216.812,343.600 217.185,343.600 220.807 C 343.600 224.798,344.000 225.600,345.990 225.600 C 346.876 225.600,347.600 225.780,347.600 226.000 C 347.600 226.757,344.592 226.438,343.675 225.584 C 342.905 224.867,342.799 224.349,342.794 221.284 C 342.787 217.399,342.635 216.962,341.200 216.695 C 340.225 216.514,340.228 216.508,341.310 216.454 C 342.205 216.411,342.466 216.168,342.660 215.200 C 342.960 213.699,343.506 213.645,343.673 215.100 M54.931 215.871 C 51.475 216.573,50.133 222.345,52.745 225.269 C 54.676 227.430,59.600 227.170,59.928 224.890 C 60.075 223.862,59.787 223.807,58.400 224.600 C 56.237 225.837,53.200 224.562,53.200 222.418 C 53.200 221.654,53.440 221.600,56.813 221.600 C 60.892 221.600,61.123 221.430,60.314 219.013 C 59.544 216.711,57.285 215.393,54.931 215.871 M100.108 216.188 C 95.251 218.318,96.710 226.771,101.938 226.794 C 104.085 226.804,107.234 224.301,106.278 223.345 C 106.138 223.204,105.854 223.533,105.648 224.075 C 103.941 228.564,97.600 226.265,97.600 221.158 C 97.600 214.698,105.528 214.705,106.435 221.165 C 106.690 222.977,106.694 222.981,106.747 221.487 C 106.890 217.415,103.494 214.704,100.108 216.188 M126.800 215.861 C 126.470 215.970,125.766 216.270,125.235 216.529 C 124.480 216.897,124.232 216.891,124.101 216.500 C 124.009 216.225,123.588 216.000,123.167 216.000 C 122.450 216.000,122.400 216.342,122.400 221.228 C 122.400 226.420,122.406 226.455,123.300 226.328 C 124.144 226.208,124.207 225.984,124.315 222.717 C 124.450 218.650,125.217 217.600,128.054 217.600 C 129.301 217.600,129.600 217.455,129.600 216.847 C 129.600 215.903,128.184 215.405,126.800 215.861 M158.533 215.878 C 157.424 216.094,155.600 217.775,155.600 218.581 C 155.600 219.480,157.094 219.345,157.600 218.400 C 158.092 217.481,160.708 217.268,161.520 218.080 C 162.621 219.181,162.048 219.808,159.500 220.290 C 155.686 221.011,154.069 223.435,156.011 225.520 C 157.011 226.593,158.405 226.971,160.105 226.629 C 160.817 226.485,162.010 226.330,162.756 226.284 L 164.113 226.200 164.031 222.431 C 163.924 217.505,162.260 214.962,159.600 215.657 C 159.490 215.685,159.010 215.785,158.533 215.878 M181.719 215.880 C 178.211 216.560,176.933 222.907,179.768 225.570 C 181.605 227.296,186.800 226.884,186.800 225.013 C 186.800 224.097,186.067 223.908,185.112 224.577 C 183.785 225.506,182.115 225.351,180.954 224.191 C 179.131 222.368,179.737 221.816,183.705 221.684 C 186.706 221.585,187.196 221.472,187.168 220.884 C 187.149 220.467,187.058 220.395,186.935 220.700 C 186.797 221.043,185.702 221.200,183.447 221.200 C 179.548 221.200,178.953 221.561,179.882 223.360 C 180.930 225.388,184.540 226.592,185.400 225.200 C 185.536 224.980,185.862 224.804,186.124 224.809 C 187.237 224.830,184.483 226.383,183.319 226.391 C 178.077 226.427,176.598 218.914,181.402 216.652 C 183.410 215.706,185.372 216.537,186.478 218.800 C 186.984 219.837,187.167 219.990,187.181 219.389 C 187.218 217.822,184.437 215.389,182.913 215.654 C 182.741 215.684,182.204 215.786,181.719 215.880 M206.600 216.197 C 205.642 216.545,204.947 216.621,204.867 216.389 C 204.793 216.175,204.388 216.000,203.967 216.000 C 203.250 216.000,203.200 216.342,203.200 221.200 C 203.200 226.133,203.241 226.400,204.000 226.400 C 204.738 226.400,204.800 226.133,204.800 222.982 C 204.800 218.811,205.609 217.600,208.394 217.600 C 209.831 217.600,210.944 216.811,210.349 216.215 C 209.843 215.709,207.971 215.700,206.600 216.197 M216.133 215.878 C 215.024 216.094,213.200 217.775,213.200 218.581 C 213.200 219.480,214.694 219.345,215.200 218.400 C 215.692 217.481,218.308 217.268,219.120 218.080 C 220.221 219.181,219.648 219.808,217.100 220.290 C 213.286 221.011,211.669 223.435,213.611 225.520 C 214.611 226.593,216.005 226.971,217.705 226.629 C 218.417 226.485,219.610 226.330,220.356 226.284 L 221.713 226.200 221.631 222.431 C 221.524 217.505,219.860 214.962,217.200 215.657 C 217.090 215.685,216.610 215.785,216.133 215.878 M227.800 216.153 C 226.917 216.533,226.412 216.555,225.888 216.235 C 224.724 215.524,224.413 216.612,224.406 221.420 C 224.400 225.858,224.712 226.962,225.849 226.526 C 226.262 226.367,226.400 225.390,226.400 222.619 C 226.400 218.474,226.862 217.600,229.051 217.600 C 230.944 217.600,231.200 218.177,231.200 222.437 C 231.200 226.366,231.623 227.417,232.751 226.289 C 233.339 225.701,233.336 219.708,232.746 218.017 C 232.055 216.035,229.931 215.235,227.800 216.153 M238.581 216.162 C 233.396 218.421,235.551 227.384,241.100 226.642 C 243.066 226.380,243.251 226.786,241.818 228.218 C 240.698 229.338,239.697 229.460,238.576 228.613 C 237.429 227.745,236.724 227.857,236.872 228.885 C 237.068 230.242,239.555 231.060,241.611 230.444 C 244.075 229.706,244.554 228.429,244.705 222.200 C 244.839 216.662,244.563 215.478,243.312 216.226 C 242.794 216.535,242.328 216.510,241.600 216.131 C 240.370 215.493,240.113 215.495,238.581 216.162 M250.108 216.188 C 246.435 217.798,246.156 224.306,249.676 226.259 C 250.989 226.988,253.477 226.918,254.838 226.114 C 256.374 225.207,256.414 224.202,254.900 224.586 C 251.942 225.335,251.020 225.286,250.135 224.332 C 248.217 222.266,248.619 221.821,252.600 221.600 C 256.666 221.374,257.079 220.953,255.826 218.311 C 254.774 216.094,252.364 215.199,250.108 216.188 M273.733 215.878 C 272.624 216.094,270.800 217.775,270.800 218.581 C 270.800 219.480,272.294 219.345,272.800 218.400 C 273.292 217.481,275.908 217.268,276.720 218.080 C 277.821 219.181,277.248 219.808,274.700 220.290 C 270.886 221.011,269.269 223.435,271.211 225.520 C 272.211 226.593,273.605 226.971,275.305 226.629 C 276.017 226.485,277.210 226.330,277.956 226.284 L 279.313 226.200 279.231 222.431 C 279.124 217.505,277.460 214.962,274.800 215.657 C 274.690 215.685,274.210 215.785,273.733 215.878 M296.108 216.188 C 291.251 218.318,292.710 226.771,297.938 226.794 C 300.085 226.804,303.234 224.301,302.278 223.345 C 302.138 223.204,301.854 223.533,301.648 224.075 C 299.941 228.564,293.600 226.265,293.600 221.158 C 293.600 214.698,301.528 214.705,302.435 221.165 C 302.690 222.977,302.694 222.981,302.747 221.487 C 302.890 217.415,299.494 214.704,296.108 216.188 M319.308 216.188 C 315.649 217.792,315.338 224.091,318.816 226.146 C 320.442 227.106,322.938 226.992,324.177 225.900 C 325.544 224.696,325.007 223.529,323.555 224.547 C 321.640 225.888,319.084 225.008,318.285 222.733 C 317.961 221.810,318.729 221.600,322.433 221.600 L 325.600 221.600 325.600 220.362 C 325.600 217.086,322.281 214.885,319.308 216.188 M353.708 216.188 C 348.851 218.318,350.310 226.771,355.538 226.794 C 357.685 226.804,360.834 224.301,359.878 223.345 C 359.738 223.204,359.454 223.533,359.248 224.075 C 357.541 228.564,351.200 226.265,351.200 221.158 C 351.200 214.698,359.128 214.705,360.035 221.165 C 360.290 222.977,360.294 222.981,360.347 221.487 C 360.490 217.415,357.094 214.704,353.708 216.188 M57.326 216.450 C 59.096 217.361,60.000 218.512,60.000 219.854 L 60.000 221.169 56.500 221.284 C 53.076 221.398,52.997 221.422,52.881 222.426 C 52.614 224.718,57.068 226.772,58.720 225.120 C 58.984 224.856,59.200 224.791,59.200 224.976 C 59.200 225.666,57.751 226.375,56.314 226.387 C 51.347 226.430,50.155 218.658,54.800 216.515 C 56.096 215.918,56.284 215.913,57.326 216.450 M85.600 216.611 C 85.600 216.947,86.513 219.220,87.628 221.661 C 89.959 226.763,89.905 227.979,87.303 229.066 C 85.739 229.720,85.763 230.541,87.351 230.728 C 89.005 230.924,90.147 229.338,93.038 222.832 C 95.846 216.510,96.009 215.881,94.780 216.072 C 94.172 216.167,93.574 217.100,92.473 219.673 C 91.656 221.583,90.880 223.253,90.749 223.384 C 90.618 223.515,89.725 221.907,88.763 219.811 C 87.121 216.230,85.600 214.691,85.600 216.611 M109.450 216.613 C 109.053 217.647,109.164 222.453,109.622 224.104 C 110.183 226.124,111.505 226.951,113.695 226.652 C 114.633 226.524,115.940 226.370,116.600 226.310 L 117.800 226.200 117.901 221.600 C 118.005 216.851,117.741 215.707,116.640 216.129 C 116.116 216.331,116.000 217.059,116.000 220.165 C 116.000 224.234,115.498 225.210,113.411 225.194 C 111.662 225.181,111.409 224.624,111.200 220.320 C 111.002 216.257,110.222 214.603,109.450 216.613 M128.553 216.323 C 128.663 216.501,127.923 216.869,126.908 217.140 C 124.334 217.828,124.028 218.396,124.013 222.500 C 124.002 225.339,123.887 226.000,123.400 226.000 C 122.904 226.000,122.800 225.252,122.800 221.667 C 122.800 217.244,122.965 216.507,123.800 217.200 C 124.119 217.465,124.780 217.339,125.836 216.812 C 127.552 215.956,128.248 215.831,128.553 216.323 M161.364 216.559 C 163.195 217.324,163.302 217.592,163.567 222.071 C 163.803 226.047,163.720 226.306,162.429 225.615 C 161.925 225.346,161.485 225.402,160.955 225.803 C 158.908 227.353,156.000 226.053,156.000 223.588 C 156.000 221.645,157.327 220.800,160.380 220.800 L 162.400 220.800 162.400 219.423 C 162.400 216.849,159.543 215.939,157.526 217.871 C 156.369 218.980,155.481 218.908,156.416 217.781 C 156.898 217.200,158.949 216.112,159.713 216.033 C 159.885 216.015,160.628 216.252,161.364 216.559 M209.400 216.400 C 209.536 216.620,209.285 216.800,208.842 216.800 C 207.852 216.800,206.005 217.594,205.200 218.366 C 204.781 218.769,204.558 220.003,204.460 222.471 C 204.257 227.613,203.600 226.793,203.600 221.397 C 203.600 217.117,203.649 216.823,204.300 217.220 C 204.832 217.544,205.383 217.453,206.600 216.839 C 208.413 215.924,209.045 215.825,209.400 216.400 M218.964 216.559 C 220.795 217.324,220.902 217.592,221.167 222.071 C 221.403 226.047,221.320 226.306,220.029 225.615 C 219.525 225.346,219.085 225.402,218.555 225.803 C 216.508 227.353,213.600 226.053,213.600 223.588 C 213.600 221.645,214.927 220.800,217.980 220.800 L 220.000 220.800 220.000 219.423 C 220.000 216.849,217.143 215.939,215.126 217.871 C 213.969 218.980,213.081 218.908,214.016 217.781 C 214.498 217.200,216.549 216.112,217.313 216.033 C 217.485 216.015,218.228 216.252,218.964 216.559 M230.611 216.478 C 232.506 217.341,233.959 225.236,232.400 226.200 C 232.145 226.358,232.000 225.195,232.000 222.997 C 232.000 218.734,231.109 216.848,229.076 216.813 C 228.678 216.806,228.464 216.620,228.600 216.400 C 228.922 215.880,229.333 215.896,230.611 216.478 M241.000 216.400 C 241.138 216.624,240.827 216.800,240.293 216.800 C 237.703 216.800,236.163 222.549,238.162 224.758 C 239.097 225.791,241.419 225.888,242.469 224.938 C 243.296 224.190,243.546 218.906,242.791 218.151 C 242.511 217.871,242.638 217.508,243.191 217.009 C 244.000 216.276,244.000 216.279,244.000 222.080 C 244.000 228.483,243.594 229.585,240.992 230.238 C 239.787 230.540,236.541 229.254,237.580 228.885 C 237.899 228.772,238.229 228.887,238.313 229.140 C 238.940 231.019,243.200 228.758,243.200 226.546 C 243.200 225.590,242.276 225.230,241.800 226.000 C 240.744 227.709,237.069 225.590,236.425 222.901 C 235.574 219.344,239.431 213.862,241.000 216.400 M253.342 216.601 C 254.817 217.218,256.000 218.899,256.000 220.380 C 256.000 221.138,255.759 221.200,252.833 221.200 C 248.159 221.200,247.360 222.099,249.722 224.700 C 250.653 225.725,254.183 226.020,254.512 225.100 C 254.610 224.825,254.837 224.737,255.016 224.904 C 255.601 225.450,253.837 226.374,252.185 226.387 C 247.188 226.427,245.819 219.044,250.375 216.629 C 251.731 215.909,251.686 215.910,253.342 216.601 M276.564 216.559 C 278.395 217.324,278.502 217.592,278.767 222.071 C 279.003 226.047,278.920 226.306,277.629 225.615 C 277.125 225.346,276.685 225.402,276.155 225.803 C 274.108 227.353,271.200 226.053,271.200 223.588 C 271.200 221.645,272.527 220.800,275.580 220.800 L 277.600 220.800 277.600 219.423 C 277.600 216.849,274.743 215.939,272.726 217.871 C 271.569 218.980,270.681 218.908,271.616 217.781 C 272.098 217.200,274.149 216.112,274.913 216.033 C 275.085 216.015,275.828 216.252,276.564 216.559 M304.670 216.287 C 304.392 216.736,308.215 226.038,308.834 226.421 C 309.765 226.996,310.204 226.379,312.100 221.824 C 314.109 217.000,314.340 216.000,313.449 216.000 C 312.655 216.000,312.286 216.605,310.809 220.325 C 309.298 224.134,309.319 224.138,307.510 219.601 C 306.268 216.487,305.268 215.320,304.670 216.287 M323.480 217.023 C 324.351 217.587,325.364 220.211,324.961 220.862 C 324.847 221.048,323.428 221.200,321.809 221.200 C 317.255 221.200,316.695 221.738,318.620 224.262 C 319.715 225.697,322.458 226.182,323.513 225.127 C 323.774 224.866,324.112 224.778,324.264 224.931 C 324.805 225.472,322.976 226.375,321.313 226.387 C 316.412 226.424,315.015 219.436,319.383 216.735 C 320.679 215.934,321.932 216.022,323.480 217.023 M95.054 217.128 C 94.897 217.397,93.984 219.422,92.362 223.100 C 89.615 229.332,88.436 230.859,86.903 230.174 C 86.273 229.892,86.288 229.844,87.050 229.708 C 89.966 229.191,90.402 226.297,88.242 221.806 C 86.054 217.259,85.904 216.800,86.610 216.800 C 86.934 216.800,87.200 216.975,87.200 217.190 C 87.200 217.562,89.257 222.367,89.934 223.576 C 90.499 224.584,90.989 224.439,91.542 223.101 C 93.729 217.816,94.459 216.389,94.850 216.631 C 95.050 216.754,95.141 216.978,95.054 217.128 M111.311 224.520 C 111.855 225.351,112.340 225.600,113.409 225.600 C 114.174 225.600,114.800 225.790,114.800 226.023 C 114.800 226.988,111.506 226.235,110.642 225.073 C 109.738 223.858,109.191 218.297,109.839 216.899 C 110.045 216.454,110.243 217.517,110.383 219.820 C 110.535 222.308,110.825 223.778,111.311 224.520 M117.600 221.424 C 117.600 225.562,117.317 226.761,116.611 225.617 C 116.481 225.407,116.122 225.332,115.814 225.450 C 115.397 225.610,115.452 225.275,116.026 224.148 C 116.597 223.030,116.800 221.805,116.800 219.492 C 116.800 217.501,116.946 216.443,117.200 216.600 C 117.429 216.742,117.600 218.804,117.600 221.424 M226.240 217.600 C 226.741 217.600,226.737 217.762,226.210 218.780 C 225.810 219.553,225.600 221.079,225.600 223.204 C 225.600 225.264,225.454 226.357,225.200 226.200 C 224.737 225.914,224.645 217.090,225.100 216.631 C 225.265 216.464,225.458 216.614,225.529 216.964 C 225.600 217.314,225.920 217.600,226.240 217.600 M312.774 219.061 C 311.728 221.399,311.092 222.876,310.216 225.000 L 309.556 226.600 308.787 225.600 C 308.364 225.050,308.014 224.373,308.009 224.095 C 308.004 223.817,307.835 223.277,307.633 222.895 C 307.054 221.801,305.732 218.690,305.425 217.700 C 304.859 215.873,305.916 216.870,306.697 218.900 C 309.160 225.297,309.318 225.408,310.800 221.800 C 311.071 221.140,311.452 220.287,311.647 219.905 C 311.841 219.523,312.000 219.022,312.000 218.791 C 312.000 218.121,313.349 216.248,313.502 216.706 C 313.578 216.935,313.251 217.995,312.774 219.061 M54.365 217.313 C 53.443 218.021,52.703 219.571,52.963 220.249 C 53.359 221.279,58.965 220.846,59.118 219.773 C 59.397 217.823,55.995 216.062,54.365 217.313 M100.254 217.390 C 98.534 218.693,97.857 221.848,98.900 223.697 C 101.347 228.036,107.439 223.918,105.150 219.474 C 103.866 216.981,101.899 216.144,100.254 217.390 M146.547 217.509 C 143.538 219.946,144.625 225.600,148.102 225.600 C 150.250 225.600,151.200 224.290,151.200 221.329 C 151.200 217.626,148.817 215.670,146.547 217.509 M180.904 217.700 C 180.099 218.568,179.852 219.242,179.953 220.300 C 180.029 221.103,185.444 220.983,185.756 220.171 C 186.659 217.818,182.677 215.789,180.904 217.700 M249.855 217.855 C 247.784 219.925,248.349 220.800,251.757 220.800 C 255.076 220.800,255.684 220.311,254.539 218.563 C 253.213 216.539,251.438 216.271,249.855 217.855 M296.254 217.390 C 294.534 218.693,293.857 221.848,294.900 223.697 C 297.347 228.036,303.439 223.918,301.150 219.474 C 299.866 216.981,297.899 216.144,296.254 217.390 M319.058 217.781 C 316.894 219.787,317.545 220.800,321.000 220.800 L 324.000 220.800 324.000 219.672 C 324.000 217.183,320.959 216.020,319.058 217.781 M353.854 217.390 C 352.134 218.693,351.457 221.848,352.500 223.697 C 354.947 228.036,361.039 223.918,358.750 219.474 C 357.466 216.981,355.499 216.144,353.854 217.390 M58.015 218.415 C 59.192 219.592,58.668 220.000,55.976 220.000 C 53.450 220.000,53.079 219.639,54.262 218.331 C 55.140 217.361,57.002 217.402,58.015 218.415 M104.000 218.400 C 105.913 220.313,104.509 225.200,102.046 225.200 C 99.108 225.200,97.872 220.764,100.072 218.113 C 100.734 217.316,103.088 217.488,104.000 218.400 M149.626 218.014 C 151.782 219.168,150.438 225.200,148.026 225.200 C 146.508 225.200,145.600 223.810,145.600 221.489 C 145.600 218.150,147.238 216.736,149.626 218.014 M184.961 218.465 C 185.839 219.720,185.440 220.000,182.776 220.000 C 180.984 220.000,180.400 219.860,180.400 219.429 C 180.400 217.621,183.858 216.891,184.961 218.465 M242.069 218.262 C 243.225 219.308,243.114 223.735,241.911 224.577 C 239.875 226.004,238.040 224.827,237.708 221.883 C 237.314 218.390,239.867 216.270,242.069 218.262 M253.669 218.262 C 255.082 219.541,254.588 220.000,251.800 220.000 C 249.023 220.000,248.854 219.871,249.823 218.489 C 250.578 217.410,252.596 217.291,253.669 218.262 M288.139 218.196 C 290.983 221.040,287.673 227.200,284.731 224.538 C 283.757 223.656,283.684 219.173,284.629 218.229 C 285.424 217.434,287.358 217.416,288.139 218.196 M300.000 218.400 C 301.913 220.313,300.509 225.200,298.046 225.200 C 295.108 225.200,293.872 220.764,296.072 218.113 C 296.734 217.316,299.088 217.488,300.000 218.400 M322.869 218.262 C 324.247 219.510,323.783 220.000,321.224 220.000 C 318.560 220.000,318.161 219.720,319.039 218.465 C 319.778 217.410,321.808 217.302,322.869 218.262 M357.600 218.400 C 359.513 220.313,358.109 225.200,355.646 225.200 C 352.708 225.200,351.472 220.764,353.672 218.113 C 354.334 217.316,356.688 217.488,357.600 218.400 M158.800 221.493 C 155.733 222.057,156.070 225.600,159.191 225.600 C 160.966 225.600,162.408 224.638,162.375 223.477 L 162.349 222.600 161.997 223.474 C 161.096 225.711,157.200 225.788,157.200 223.569 C 157.200 222.480,158.296 221.882,160.372 221.840 C 161.442 221.818,162.235 221.665,162.135 221.500 C 161.944 221.185,160.490 221.182,158.800 221.493 M216.400 221.493 C 213.333 222.057,213.670 225.600,216.791 225.600 C 218.566 225.600,220.008 224.638,219.975 223.477 L 219.949 222.600 219.597 223.474 C 218.696 225.711,214.800 225.788,214.800 223.569 C 214.800 222.480,215.896 221.882,217.972 221.840 C 219.042 221.818,219.835 221.665,219.735 221.500 C 219.544 221.185,218.090 221.182,216.400 221.493 M274.000 221.493 C 270.933 222.057,271.270 225.600,274.391 225.600 C 276.166 225.600,277.608 224.638,277.575 223.477 L 277.549 222.600 277.197 223.474 C 276.296 225.711,272.400 225.788,272.400 223.569 C 272.400 222.480,273.496 221.882,275.572 221.840 C 276.642 221.818,277.435 221.665,277.335 221.500 C 277.144 221.185,275.690 221.182,274.000 221.493 M254.267 238.667 C 254.120 238.813,254.000 239.789,254.000 240.834 L 254.000 242.736 252.644 242.361 C 249.787 241.572,247.540 243.576,247.282 247.141 C 246.956 251.645,248.771 253.445,253.193 253.001 L 256.000 252.719 256.000 245.559 C 256.000 238.259,255.734 237.200,254.267 238.667 M255.510 245.467 C 255.444 249.462,255.240 252.185,255.000 252.261 C 254.350 252.466,253.297 251.581,253.900 251.336 C 255.876 250.534,254.000 243.185,251.825 243.209 C 250.157 243.227,247.618 246.951,248.603 247.936 C 248.690 248.023,248.881 247.578,249.028 246.947 C 249.650 244.276,252.016 242.976,253.520 244.480 C 254.545 245.505,254.131 250.757,252.984 251.280 C 251.436 251.985,249.901 251.278,249.323 249.591 C 248.898 248.354,248.843 248.313,248.823 249.225 C 248.789 250.741,250.158 252.000,251.839 252.000 C 252.676 252.000,253.147 252.162,253.000 252.400 C 252.505 253.201,250.140 252.831,249.098 251.789 C 245.696 248.387,248.778 240.920,252.739 242.968 C 254.432 243.844,254.400 243.877,254.400 241.200 C 254.400 239.316,254.531 238.800,255.010 238.800 C 255.536 238.800,255.604 239.712,255.510 245.467 M262.639 239.094 C 261.892 239.842,262.409 248.800,263.200 248.800 C 263.955 248.800,264.000 248.533,264.000 244.043 C 264.000 239.476,263.624 238.109,262.639 239.094 M263.600 244.000 C 263.600 246.667,263.442 248.400,263.200 248.400 C 262.958 248.400,262.800 246.667,262.800 244.000 C 262.800 241.333,262.958 239.600,263.200 239.600 C 263.442 239.600,263.600 241.333,263.600 244.000 M158.267 240.267 C 158.120 240.413,158.000 240.953,158.000 241.467 C 158.000 242.225,157.787 242.400,156.867 242.400 C 155.535 242.400,155.175 242.669,155.470 243.439 C 155.589 243.748,156.189 244.000,156.804 244.000 L 157.923 244.000 158.061 247.836 C 158.235 252.626,160.552 254.738,163.551 252.839 C 164.420 252.289,163.682 251.600,162.225 251.600 C 160.284 251.600,159.948 250.932,160.082 247.338 L 160.200 244.200 161.700 244.076 C 162.525 244.008,163.200 243.783,163.200 243.576 C 163.200 243.369,163.206 243.065,163.213 242.900 C 163.221 242.735,162.546 242.510,161.713 242.400 C 160.419 242.229,160.182 242.041,160.073 241.100 C 159.952 240.047,158.949 239.585,158.267 240.267 M192.667 240.267 C 192.520 240.413,192.400 240.953,192.400 241.467 C 192.400 242.225,192.187 242.400,191.267 242.400 C 189.935 242.400,189.575 242.669,189.870 243.439 C 189.989 243.748,190.589 244.000,191.204 244.000 L 192.323 244.000 192.461 247.836 C 192.635 252.626,194.952 254.738,197.951 252.839 C 198.820 252.289,198.082 251.600,196.625 251.600 C 194.684 251.600,194.348 250.932,194.482 247.338 L 194.600 244.200 196.100 244.076 C 196.925 244.008,197.600 243.783,197.600 243.576 C 197.600 243.369,197.606 243.065,197.613 242.900 C 197.621 242.735,196.946 242.510,196.113 242.400 C 194.819 242.229,194.582 242.041,194.473 241.100 C 194.352 240.047,193.349 239.585,192.667 240.267 M227.127 241.100 C 227.021 242.021,226.785 242.221,225.676 242.327 C 223.966 242.491,224.059 243.699,225.805 243.999 L 227.000 244.205 227.200 247.803 C 227.462 252.512,227.741 252.956,230.450 252.981 C 232.166 252.996,232.606 252.864,232.719 252.300 C 232.833 251.726,232.568 251.600,231.243 251.600 C 229.136 251.600,228.731 250.827,228.883 247.094 L 229.000 244.200 230.596 244.000 C 232.963 243.703,233.056 242.492,230.725 242.324 C 229.177 242.213,228.987 242.087,228.873 241.100 C 228.786 240.338,228.517 240.000,228.000 240.000 C 227.483 240.000,227.214 240.338,227.127 241.100 M159.200 241.151 C 159.200 242.168,159.931 242.702,161.602 242.903 L 163.000 243.072 161.514 243.136 C 158.002 243.287,158.187 251.631,161.709 251.924 C 163.674 252.088,163.636 252.800,161.662 252.800 C 159.200 252.800,158.638 251.848,158.400 247.277 C 158.208 243.584,158.161 243.423,157.200 243.178 L 156.200 242.922 157.200 242.761 C 157.944 242.641,158.232 242.318,158.327 241.500 C 158.468 240.270,159.200 239.978,159.200 241.151 M193.600 241.151 C 193.600 242.168,194.331 242.702,196.002 242.903 L 197.400 243.072 195.914 243.136 C 192.402 243.287,192.587 251.631,196.109 251.924 C 198.074 252.088,198.036 252.800,196.062 252.800 C 193.600 252.800,193.038 251.848,192.800 247.277 C 192.608 243.584,192.561 243.423,191.600 243.178 L 190.600 242.922 191.600 242.761 C 192.344 242.641,192.632 242.318,192.727 241.500 C 192.868 240.270,193.600 239.978,193.600 241.151 M228.473 241.500 C 228.582 242.446,228.824 242.634,230.200 242.843 L 231.800 243.086 230.343 243.143 C 228.578 243.212,228.400 243.585,228.400 247.207 C 228.400 251.198,228.800 252.000,230.790 252.000 C 231.676 252.000,232.400 252.180,232.400 252.400 C 232.400 253.157,229.392 252.838,228.475 251.984 C 227.705 251.267,227.599 250.749,227.594 247.684 C 227.587 243.799,227.435 243.362,226.000 243.095 C 225.025 242.914,225.028 242.908,226.110 242.854 C 227.005 242.811,227.266 242.568,227.460 241.600 C 227.760 240.099,228.306 240.045,228.473 241.500 M135.000 242.377 C 129.866 244.529,131.585 253.711,137.008 253.100 C 139.039 252.871,139.367 253.433,138.000 254.800 C 137.064 255.736,136.184 255.791,134.800 255.000 C 133.530 254.274,132.800 254.251,132.800 254.938 C 132.800 256.464,136.047 257.631,138.100 256.842 C 140.316 255.991,140.797 254.435,140.799 248.100 L 140.800 242.400 139.500 242.479 C 138.785 242.522,137.660 242.441,137.000 242.299 C 136.340 242.158,135.440 242.193,135.000 242.377 M146.508 242.588 C 142.849 244.192,142.538 250.491,146.016 252.546 C 147.642 253.506,150.138 253.392,151.377 252.300 C 152.744 251.096,152.207 249.929,150.755 250.947 C 148.840 252.288,146.284 251.408,145.485 249.133 C 145.161 248.210,145.929 248.000,149.633 248.000 L 152.800 248.000 152.800 246.762 C 152.800 243.486,149.481 241.285,146.508 242.588 M181.213 242.523 C 177.526 243.792,178.188 246.823,182.484 248.337 C 185.317 249.336,185.939 250.004,184.954 250.988 C 183.984 251.959,181.722 251.759,180.564 250.600 C 178.807 248.843,177.750 250.000,179.380 251.895 C 181.497 254.356,187.200 253.120,187.200 250.200 C 187.200 248.550,186.317 247.786,183.376 246.891 C 181.315 246.263,181.000 246.037,181.000 245.184 C 181.000 243.804,183.986 243.507,185.074 244.778 C 185.854 245.689,187.200 245.886,187.200 245.089 C 187.200 244.062,185.940 242.821,184.488 242.418 C 182.733 241.930,182.954 241.923,181.213 242.523 M204.533 242.278 C 203.424 242.494,201.600 244.175,201.600 244.981 C 201.600 245.860,202.895 245.748,203.707 244.800 C 204.965 243.331,208.000 243.921,208.000 245.634 C 208.000 246.153,207.480 246.373,205.732 246.591 C 201.856 247.075,199.961 250.132,202.168 252.339 C 202.914 253.085,206.081 253.399,207.141 252.831 C 207.684 252.541,208.257 252.504,208.700 252.732 C 210.020 253.411,210.203 252.893,210.058 248.900 C 209.875 243.857,208.251 241.364,205.600 242.057 C 205.490 242.085,205.010 242.185,204.533 242.278 M218.248 242.588 C 217.065 243.010,216.522 243.033,215.966 242.686 C 214.780 241.945,214.600 242.611,214.600 247.732 C 214.600 252.407,214.634 252.605,215.459 252.722 C 216.276 252.839,216.326 252.665,216.459 249.187 C 216.623 244.930,217.266 244.000,220.044 244.000 C 221.304 244.000,221.600 243.856,221.600 243.243 C 221.600 241.967,220.560 241.764,218.248 242.588 M239.319 242.280 C 235.811 242.960,234.533 249.307,237.368 251.970 C 239.205 253.696,244.400 253.284,244.400 251.413 C 244.400 250.497,243.667 250.308,242.712 250.977 C 241.385 251.906,239.715 251.751,238.554 250.591 C 236.731 248.768,237.337 248.216,241.305 248.084 C 244.306 247.985,244.796 247.872,244.768 247.284 C 244.749 246.867,244.658 246.795,244.535 247.100 C 244.397 247.443,243.302 247.600,241.047 247.600 C 237.148 247.600,236.553 247.961,237.482 249.760 C 238.530 251.788,242.140 252.992,243.000 251.600 C 243.136 251.380,243.462 251.204,243.724 251.209 C 244.837 251.230,242.083 252.783,240.919 252.791 C 235.677 252.827,234.198 245.314,239.002 243.052 C 241.010 242.106,242.972 242.937,244.078 245.200 C 244.584 246.237,244.767 246.390,244.781 245.789 C 244.818 244.222,242.037 241.789,240.513 242.054 C 240.341 242.084,239.804 242.186,239.319 242.280 M137.540 242.969 C 138.145 243.282,138.991 243.507,139.420 243.469 C 140.157 243.404,140.200 243.688,140.200 248.642 C 140.200 254.352,139.897 255.458,138.105 256.300 C 136.539 257.035,133.614 256.515,133.603 255.500 C 133.599 255.062,134.312 255.133,134.600 255.600 C 135.047 256.323,137.313 256.034,138.274 255.130 C 139.274 254.191,139.529 252.220,138.700 251.833 C 138.300 251.647,138.300 251.553,138.700 251.367 C 138.975 251.238,139.182 250.653,139.160 250.067 L 139.120 249.000 138.843 249.996 C 138.204 252.291,134.752 251.944,134.052 249.516 C 133.729 248.398,133.667 248.347,133.636 249.174 C 133.583 250.621,135.075 252.000,136.693 252.000 C 137.494 252.000,137.946 252.163,137.800 252.400 C 137.258 253.277,134.970 252.821,133.804 251.604 C 130.529 248.186,133.655 240.960,137.540 242.969 M150.680 243.423 C 151.551 243.987,152.564 246.611,152.161 247.262 C 152.047 247.448,150.628 247.600,149.009 247.600 C 144.455 247.600,143.895 248.138,145.820 250.662 C 146.915 252.097,149.658 252.582,150.713 251.527 C 150.974 251.266,151.312 251.178,151.464 251.331 C 152.005 251.872,150.176 252.775,148.513 252.787 C 143.612 252.824,142.215 245.836,146.583 243.135 C 147.879 242.334,149.132 242.422,150.680 243.423 M184.795 243.121 C 185.574 243.501,186.243 244.155,186.311 244.601 C 186.418 245.311,186.375 245.329,185.916 244.765 C 184.226 242.686,180.000 242.997,180.000 245.200 C 180.000 245.814,181.703 247.200,182.457 247.200 C 185.789 247.200,187.750 249.958,185.742 251.819 C 184.003 253.430,177.678 252.205,179.297 250.572 C 179.461 250.407,179.932 250.661,180.344 251.136 C 181.962 253.000,186.499 251.804,185.828 249.689 C 185.577 248.897,184.077 248.022,182.881 247.971 C 180.917 247.886,178.715 245.666,179.438 244.500 C 180.512 242.770,182.848 242.168,184.795 243.121 M207.381 242.966 C 209.287 243.763,209.600 244.618,209.600 249.036 C 209.600 252.704,209.560 252.890,208.900 252.314 C 208.515 251.979,207.975 251.786,207.700 251.886 C 206.970 252.150,207.088 251.687,208.000 250.708 C 209.880 248.690,208.618 247.297,205.353 247.786 C 201.687 248.336,201.582 252.000,205.233 252.000 C 206.207 252.000,206.749 252.159,206.600 252.400 C 206.094 253.220,203.738 252.829,202.655 251.745 C 200.439 249.530,202.342 247.200,206.368 247.200 C 208.553 247.200,209.251 246.390,208.413 244.824 C 207.403 242.937,205.023 242.688,203.407 244.300 C 202.454 245.252,202.326 245.292,202.458 244.601 C 202.757 243.038,205.429 242.151,207.381 242.966 M221.000 242.800 C 221.136 243.020,220.885 243.200,220.442 243.200 C 217.356 243.200,216.020 244.978,216.009 249.100 C 216.004 251.027,215.834 252.400,215.600 252.400 C 215.355 252.400,215.203 250.506,215.209 247.500 C 215.218 242.666,215.228 242.613,215.952 243.554 C 216.481 244.243,216.770 244.371,216.991 244.015 C 217.644 242.959,220.553 242.077,221.000 242.800 M134.876 243.929 C 134.368 244.320,133.793 245.346,133.598 246.209 C 133.128 248.292,133.431 248.515,133.977 246.487 C 134.712 243.758,137.566 242.977,138.685 245.200 C 139.040 245.906,139.190 245.998,139.194 245.516 C 139.210 243.648,136.524 242.661,134.876 243.929 M146.258 244.181 C 144.094 246.187,144.745 247.200,148.200 247.200 L 151.200 247.200 151.200 246.072 C 151.200 243.583,148.159 242.420,146.258 244.181 M238.504 244.100 C 237.699 244.968,237.452 245.642,237.553 246.700 C 237.629 247.503,243.044 247.383,243.356 246.571 C 244.259 244.218,240.277 242.189,238.504 244.100 M150.069 244.662 C 151.447 245.910,150.983 246.400,148.424 246.400 C 145.760 246.400,145.361 246.120,146.239 244.865 C 146.978 243.810,149.008 243.702,150.069 244.662 M242.561 244.865 C 243.439 246.120,243.040 246.400,240.376 246.400 C 238.584 246.400,238.000 246.260,238.000 245.829 C 238.000 244.021,241.458 243.291,242.561 244.865 M207.923 249.261 C 208.139 251.130,204.829 252.481,203.616 251.019 C 202.465 249.632,204.242 247.892,206.600 248.096 C 207.568 248.180,207.824 248.405,207.923 249.261 M262.400 251.976 C 262.400 252.985,263.086 253.393,263.794 252.805 C 264.522 252.201,264.125 251.200,263.157 251.200 C 262.674 251.200,262.400 251.481,262.400 251.976 M263.660 252.200 C 263.660 252.409,263.466 252.645,263.230 252.723 C 262.993 252.802,262.800 252.567,262.800 252.200 C 262.800 251.833,262.993 251.598,263.230 251.677 C 263.466 251.755,263.660 251.991,263.660 252.200 " stroke="none" fill="#545454" fill-rule="evenodd"></path></g></svg>