<svg id="svg" version="1.1" xmlns="http://www.w3.org/2000/svg" xmlns:xlink="http://www.w3.org/1999/xlink" width="400" height="400" viewBox="0, 0, 400,400"><g id="svgg"><path id="path1" d="M174.080 115.680 C 172.855 116.905,174.159 122.134,176.346 124.761 C 177.863 126.584,178.400 126.131,178.400 123.027 C 178.400 118.195,175.869 113.891,174.080 115.680 M217.227 117.549 C 216.608 118.706,216.665 122.111,217.300 121.902 C 218.115 121.633,218.816 119.900,218.704 118.431 C 218.583 116.841,217.843 116.399,217.227 117.549 M237.036 124.431 C 236.005 125.656,235.694 126.964,236.339 127.362 C 237.018 127.782,239.886 124.020,239.319 123.453 C 238.788 122.921,238.034 123.245,237.036 124.431 M152.690 126.454 C 151.047 127.373,152.988 132.961,155.936 135.800 C 158.205 137.985,158.621 137.894,158.507 135.234 C 158.316 130.784,154.701 125.328,152.690 126.454 M254.890 136.381 C 252.957 137.781,250.425 141.045,250.410 142.154 C 250.385 144.043,257.021 141.559,259.028 138.928 C 261.511 135.672,258.462 133.794,254.890 136.381 M135.680 140.480 C 134.074 142.086,136.311 146.226,140.092 148.645 C 142.421 150.136,142.958 149.959,142.662 147.799 C 142.039 143.256,137.579 138.581,135.680 140.480 M268.200 153.156 C 265.840 154.256,262.600 157.116,262.600 158.099 C 262.600 159.562,269.863 157.659,272.429 155.524 C 275.858 152.670,272.852 150.987,268.200 153.156 M123.327 161.045 C 122.817 162.375,126.630 164.847,127.362 163.661 C 127.604 163.270,125.827 161.517,124.494 160.832 C 123.738 160.443,123.545 160.478,123.327 161.045 M279.105 174.196 C 277.031 174.971,273.924 177.172,274.110 177.734 C 274.603 179.228,281.667 178.249,283.716 176.403 C 286.108 174.247,282.979 172.749,279.105 174.196 M116.991 181.615 C 116.366 182.625,118.807 183.550,121.200 183.209 C 122.132 183.077,122.205 182.834,121.517 182.146 C 120.683 181.311,117.415 180.928,116.991 181.615 M278.098 217.300 C 278.506 218.535,282.409 219.356,283.038 218.339 C 283.516 217.564,281.954 216.800,279.890 216.800 C 278.503 216.800,277.981 216.946,278.098 217.300 M118.556 222.246 C 114.885 223.548,114.213 226.075,117.473 226.320 C 120.360 226.537,126.631 223.344,125.837 222.061 C 125.435 221.410,120.564 221.534,118.556 222.246 M272.638 236.339 C 272.396 236.730,274.173 238.483,275.506 239.168 C 276.262 239.557,276.455 239.522,276.673 238.955 C 277.183 237.625,273.370 235.153,272.638 236.339 M133.498 241.625 C 127.979 242.959,123.649 248.000,128.023 248.000 C 130.843 248.000,137.988 243.379,137.494 241.875 C 137.296 241.272,135.440 241.156,133.498 241.625 M257.338 252.201 C 258.104 257.787,264.374 262.871,264.719 258.186 C 264.865 256.196,263.346 253.902,260.501 251.814 C 257.771 249.812,257.023 249.903,257.338 252.201 M145.355 258.028 C 139.758 260.181,138.007 265.989,143.359 264.646 C 145.334 264.150,149.600 259.476,149.600 257.808 C 149.600 256.967,147.882 257.056,145.355 258.028 M241.389 262.818 C 240.656 264.004,242.649 270.208,244.479 272.435 C 246.022 274.313,248.000 274.053,248.000 271.971 C 248.000 268.638,242.499 261.022,241.389 262.818 M162.310 273.514 C 160.668 275.276,160.233 276.361,161.045 276.673 C 161.510 276.851,162.084 276.531,162.862 275.660 C 164.737 273.563,164.202 271.485,162.310 273.514 M221.867 274.267 C 221.364 274.770,221.600 279.458,222.220 281.278 C 223.495 285.020,226.052 285.868,226.325 282.639 C 226.598 279.420,223.163 272.970,221.867 274.267 M182.000 278.600 C 181.267 279.483,180.992 282.625,181.615 283.009 C 182.434 283.516,183.200 282.026,183.200 279.924 C 183.200 277.937,182.861 277.563,182.000 278.600 " stroke="none" fill="#545454" fill-rule="evenodd"></path><path id="path2" d="M173.900 115.232 C 173.375 115.538,173.200 116.161,173.200 117.720 C 173.201 122.692,178.649 129.425,178.858 124.713 C 179.143 118.274,176.700 113.601,173.900 115.232 M176.317 116.111 C 178.084 117.993,179.257 125.023,177.939 125.837 C 177.275 126.248,175.356 123.776,174.407 121.285 C 172.726 116.878,173.943 113.584,176.317 116.111 M216.947 117.425 C 216.083 118.743,215.984 121.896,216.791 122.394 C 217.696 122.954,218.669 121.813,219.210 119.558 C 219.917 116.612,218.410 115.192,216.947 117.425 M218.704 118.431 C 218.816 119.900,218.115 121.633,217.300 121.902 C 216.665 122.111,216.608 118.706,217.227 117.549 C 217.843 116.399,218.583 116.841,218.704 118.431 M237.957 123.000 C 236.649 123.710,235.682 125.160,235.523 126.651 C 235.320 128.550,237.038 128.221,238.700 126.042 C 240.632 123.509,240.210 121.778,237.957 123.000 M239.319 123.453 C 239.886 124.020,237.018 127.782,236.339 127.362 C 235.694 126.964,236.005 125.656,237.036 124.431 C 238.034 123.245,238.788 122.921,239.319 123.453 M152.229 126.229 C 150.085 128.372,155.050 138.000,158.298 138.000 C 159.313 138.000,159.315 137.992,159.064 135.300 C 158.532 129.606,154.372 124.085,152.229 126.229 M155.524 127.565 C 157.667 130.164,159.562 137.400,158.099 137.400 C 156.304 137.400,152.000 130.787,152.000 128.029 C 152.000 125.947,153.974 125.687,155.524 127.565 M255.674 135.438 C 252.330 137.105,248.833 142.066,250.202 143.202 C 251.948 144.651,260.800 139.520,260.800 137.059 C 260.800 134.766,258.489 134.035,255.674 135.438 M259.926 136.493 C 260.197 138.848,256.111 142.126,252.243 142.656 C 249.899 142.977,249.800 142.245,251.814 139.499 C 254.801 135.428,259.598 133.650,259.926 136.493 M135.407 140.157 C 133.324 142.240,136.038 147.152,140.501 149.375 C 143.523 150.881,144.006 150.280,142.845 146.459 C 141.333 141.479,137.409 138.155,135.407 140.157 M139.342 141.475 C 141.961 144.019,143.956 149.600,142.246 149.600 C 139.911 149.600,135.200 144.647,135.200 142.191 C 135.200 139.614,137.089 139.287,139.342 141.475 M268.503 152.448 C 265.780 153.494,262.000 156.895,262.000 158.298 C 262.000 160.619,270.831 158.180,273.375 155.156 C 275.887 152.172,273.162 150.657,268.503 152.448 M273.552 152.710 C 274.633 154.731,269.199 158.317,264.766 158.507 C 262.106 158.621,262.015 158.205,264.200 155.936 C 267.087 152.938,272.647 151.020,273.552 152.710 M122.607 160.388 C 122.085 161.234,123.673 163.277,125.471 164.073 C 128.593 165.453,129.003 163.558,126.067 161.319 C 124.339 160.001,123.059 159.657,122.607 160.388 M126.486 162.310 C 128.515 164.202,126.437 164.737,124.340 162.862 C 123.469 162.084,123.149 161.510,123.327 161.045 C 123.639 160.233,124.724 160.668,126.486 162.310 M277.800 174.348 C 273.572 176.368,272.438 178.530,275.422 178.879 C 280.666 179.491,286.061 176.808,284.865 174.184 C 284.201 172.726,281.040 172.799,277.800 174.348 M284.559 174.523 C 285.663 176.333,281.122 178.532,276.719 178.319 C 273.651 178.170,273.432 177.629,275.783 176.012 C 279.272 173.611,283.559 172.884,284.559 174.523 M116.779 181.026 C 116.006 181.957,116.737 182.891,118.746 183.541 C 120.805 184.207,122.400 183.884,122.400 182.803 C 122.400 181.293,117.771 179.830,116.779 181.026 M121.517 182.146 C 122.205 182.834,122.132 183.077,121.200 183.209 C 118.807 183.550,116.366 182.625,116.991 181.615 C 117.415 180.928,120.683 181.311,121.517 182.146 M151.649 188.801 C 145.027 190.364,142.434 200.933,147.347 206.339 C 150.848 210.192,160.345 209.982,160.728 206.042 C 160.943 203.831,160.627 203.462,159.162 204.220 C 154.082 206.847,149.200 204.123,149.200 198.661 C 149.200 193.330,152.713 191.373,159.324 193.022 L 160.448 193.302 160.324 191.361 C 160.146 188.566,156.811 187.582,151.649 188.801 M196.449 188.801 C 189.827 190.364,187.234 200.933,192.147 206.339 C 195.648 210.192,205.145 209.982,205.528 206.042 C 205.743 203.831,205.427 203.462,203.962 204.220 C 198.882 206.847,194.000 204.123,194.000 198.661 C 194.000 193.330,197.513 191.373,204.124 193.022 L 205.248 193.302 205.124 191.361 C 204.946 188.566,201.611 187.582,196.449 188.801 M235.614 188.699 C 230.409 188.862,230.812 188.014,230.812 198.800 C 230.812 209.815,230.226 208.850,236.831 208.712 L 242.200 208.600 242.323 206.900 L 242.446 205.200 239.456 205.200 C 235.265 205.200,235.200 205.156,235.200 202.357 L 235.200 200.000 237.371 200.000 C 242.016 200.000,242.231 196.161,237.600 195.916 L 235.400 195.800 235.400 194.200 L 235.400 192.600 238.600 192.400 L 241.800 192.200 241.920 190.552 C 242.033 189.012,241.131 188.044,240.000 188.490 C 239.890 188.533,237.916 188.627,235.614 188.699 M167.200 189.438 C 167.200 189.789,167.569 190.594,168.019 191.227 C 170.764 195.082,172.996 200.930,173.200 204.800 L 173.400 208.600 175.400 208.600 L 177.400 208.600 177.514 205.189 C 177.627 201.831,177.676 201.682,180.750 195.452 C 184.102 188.655,184.102 188.663,181.146 188.875 L 179.400 189.000 177.765 192.400 C 175.730 196.630,175.440 196.624,173.328 192.300 L 171.618 188.800 169.409 188.800 C 167.653 188.800,167.200 188.931,167.200 189.438 M213.780 189.308 C 213.673 189.588,213.633 194.043,213.692 199.208 L 213.800 208.600 218.269 208.713 C 222.510 208.820,222.752 208.783,223.005 207.984 C 223.594 206.128,222.934 205.200,221.025 205.200 C 217.857 205.200,218.001 205.557,217.995 197.657 C 217.988 188.744,218.002 188.800,215.741 188.800 C 214.682 188.800,213.897 189.003,213.780 189.308 M250.168 205.340 C 249.379 207.395,250.130 208.600,252.200 208.600 L 254.200 208.600 254.200 206.800 L 254.200 205.000 252.296 204.878 C 250.911 204.789,250.331 204.915,250.168 205.340 M278.300 216.264 C 277.487 216.490,277.371 217.712,278.105 218.321 C 279.897 219.809,283.600 219.700,283.600 218.160 C 283.600 217.002,280.121 215.757,278.300 216.264 M282.585 217.339 C 282.990 217.636,283.194 218.086,283.038 218.339 C 282.409 219.356,278.506 218.535,278.098 217.300 C 277.868 216.601,281.620 216.634,282.585 217.339 M120.992 221.216 C 116.932 221.770,114.258 223.892,115.150 225.851 C 115.973 227.656,120.988 226.930,124.417 224.510 C 127.922 222.035,126.315 220.490,120.992 221.216 M125.837 222.061 C 126.631 223.344,120.360 226.537,117.473 226.320 C 114.213 226.075,114.885 223.548,118.556 222.246 C 120.564 221.534,125.435 221.410,125.837 222.061 M272.500 235.491 C 271.032 236.007,273.587 239.267,275.929 239.864 C 277.928 240.374,277.674 237.510,275.623 236.412 C 274.247 235.676,273.011 235.311,272.500 235.491 M275.660 237.138 C 276.531 237.916,276.851 238.490,276.673 238.955 C 276.361 239.767,275.276 239.332,273.514 237.690 C 271.485 235.798,273.563 235.263,275.660 237.138 M133.400 241.174 C 130.160 241.962,126.304 244.411,125.799 246.002 C 124.596 249.792,131.433 248.833,135.988 244.573 C 139.371 241.408,138.288 239.985,133.400 241.174 M137.494 241.875 C 137.988 243.379,130.843 248.000,128.023 248.000 C 124.961 248.000,126.201 244.925,130.050 242.974 C 133.295 241.330,137.130 240.764,137.494 241.875 M256.798 250.202 C 255.456 251.819,259.759 259.762,262.438 260.612 C 263.422 260.924,265.042 259.927,265.404 258.786 C 266.336 255.852,258.552 248.089,256.798 250.202 M260.501 251.814 C 263.346 253.902,264.865 256.196,264.719 258.186 C 264.374 262.871,258.104 257.787,257.338 252.201 C 257.023 249.903,257.771 249.812,260.501 251.814 M146.161 257.218 C 141.840 258.588,138.493 262.262,139.779 264.224 C 141.542 266.915,147.021 264.225,149.367 259.516 C 150.939 256.361,150.302 255.905,146.161 257.218 M149.600 257.808 C 149.600 259.476,145.334 264.150,143.359 264.646 C 139.825 265.533,138.888 263.281,141.637 260.505 C 144.100 258.017,149.600 256.155,149.600 257.808 M240.938 262.617 C 240.499 263.760,241.246 267.381,242.433 269.869 C 244.777 274.781,248.400 276.033,248.400 271.931 C 248.400 267.667,242.045 259.733,240.938 262.617 M243.979 264.100 C 247.983 268.018,249.426 275.426,245.810 273.501 C 243.021 272.016,239.673 262.400,241.945 262.400 C 242.108 262.400,243.024 263.165,243.979 264.100 M161.616 273.500 C 159.391 276.185,159.554 278.265,161.895 277.054 C 163.657 276.143,164.623 274.419,164.446 272.500 C 164.354 271.498,162.828 272.037,161.616 273.500 M164.000 273.617 C 164.000 274.785,161.869 276.989,161.045 276.673 C 160.233 276.361,160.668 275.276,162.310 273.514 C 163.398 272.347,164.000 272.384,164.000 273.617 M221.379 274.034 C 220.938 274.748,221.104 279.494,221.626 281.103 C 223.172 285.872,226.804 286.703,226.796 282.286 C 226.788 278.166,222.687 271.918,221.379 274.034 M223.955 275.664 C 226.274 278.818,227.107 283.551,225.518 284.546 C 223.809 285.617,221.600 281.360,221.600 276.995 C 221.600 273.415,222.095 273.135,223.955 275.664 M181.464 278.700 C 180.497 280.609,180.302 282.621,181.026 283.221 C 181.934 283.975,182.882 283.276,183.515 281.384 C 184.533 278.342,182.796 276.069,181.464 278.700 M183.200 279.924 C 183.200 282.026,182.434 283.516,181.615 283.009 C 180.992 282.625,181.267 279.483,182.000 278.600 C 182.861 277.563,183.200 277.937,183.200 279.924 " stroke="none" fill="#8fb5de" fill-rule="evenodd"></path></g></svg>