<svg id="svg" version="1.1" xmlns="http://www.w3.org/2000/svg" xmlns:xlink="http://www.w3.org/1999/xlink" width="400" height="400" viewBox="0, 0, 400,400"><g id="svgg"><path id="path0" d="M174.080 115.680 C 172.835 116.925,173.964 121.546,176.284 124.700 C 177.875 126.862,178.400 126.448,178.400 123.033 C 178.400 118.017,175.936 113.824,174.080 115.680 M217.227 117.550 C 216.712 118.511,216.654 122.400,217.154 122.400 C 217.682 122.400,218.712 119.999,218.866 118.412 C 219.023 116.787,217.940 116.218,217.227 117.550 M237.020 124.538 C 236.036 125.829,235.642 127.600,236.339 127.600 C 237.172 127.600,239.600 124.488,239.600 123.420 C 239.600 122.670,237.875 123.417,237.020 124.538 M152.657 126.472 C 151.038 127.378,152.749 132.297,155.827 135.588 C 158.273 138.203,158.929 138.229,158.608 135.700 C 157.893 130.063,154.802 125.271,152.657 126.472 M254.733 136.579 C 251.641 138.866,248.930 143.690,251.100 143.046 C 251.485 142.932,252.340 142.718,253.000 142.572 C 254.690 142.197,257.445 140.555,258.848 139.087 C 261.950 135.841,258.540 133.763,254.733 136.579 M135.467 140.267 C 134.728 141.006,135.285 143.489,136.590 145.267 C 138.853 148.351,143.692 151.074,143.046 148.900 C 142.932 148.515,142.718 147.660,142.572 147.000 C 141.666 142.919,137.121 138.612,135.467 140.267 M268.513 152.994 C 266.242 154.027,262.400 157.356,262.400 158.292 C 262.400 159.613,268.197 158.196,271.461 156.076 C 276.005 153.126,273.647 150.661,268.513 152.994 M123.200 161.180 C 123.200 162.129,125.547 164.000,126.738 164.000 C 128.318 164.000,127.238 162.253,124.920 161.059 C 123.301 160.226,123.200 160.233,123.200 161.180 M278.000 174.724 C 273.108 177.168,272.755 178.400,276.947 178.400 C 280.406 178.400,283.610 177.275,284.410 175.781 C 285.675 173.418,281.871 172.791,278.000 174.724 M116.800 181.730 C 116.800 182.673,118.080 183.200,120.374 183.200 C 122.556 183.200,122.882 182.893,121.569 182.074 C 120.172 181.201,116.800 180.958,116.800 181.730 M277.600 217.154 C 277.600 217.612,279.826 218.629,281.515 218.942 C 283.108 219.238,283.790 218.221,282.589 217.342 C 281.772 216.745,277.600 216.588,277.600 217.154 M117.919 222.520 C 114.464 224.104,114.403 226.400,117.816 226.400 C 120.637 226.400,126.000 223.635,126.000 222.180 C 126.000 221.205,120.258 221.447,117.919 222.520 M272.400 236.339 C 272.400 237.172,275.512 239.600,276.580 239.600 C 277.330 239.600,276.583 237.875,275.462 237.020 C 274.171 236.036,272.400 235.642,272.400 236.339 M135.000 241.464 C 129.032 242.182,122.802 248.000,128.003 248.000 C 130.691 248.000,137.600 243.497,137.600 241.745 C 137.600 241.207,137.358 241.181,135.000 241.464 M256.954 251.100 C 257.068 251.485,257.282 252.340,257.428 253.000 C 258.171 256.345,261.411 260.112,263.380 259.919 C 266.289 259.635,264.552 254.788,260.467 251.790 C 258.402 250.275,256.604 249.922,256.954 251.100 M146.740 257.566 C 141.004 259.400,137.534 264.418,141.800 264.709 C 144.449 264.890,149.548 260.300,149.587 257.700 C 149.602 256.638,149.635 256.640,146.740 257.566 M241.392 264.300 C 242.110 269.960,245.532 275.151,247.479 273.534 C 248.882 272.370,247.152 267.597,244.173 264.412 C 241.727 261.797,241.071 261.771,241.392 264.300 M162.951 272.706 C 162.385 273.076,160.400 275.994,160.400 276.456 C 160.400 277.310,162.057 276.672,162.980 275.462 C 164.379 273.627,164.360 271.784,162.951 272.706 M221.600 276.947 C 221.600 280.406,222.725 283.610,224.219 284.410 C 227.386 286.105,227.039 279.817,223.716 275.300 C 222.128 273.142,221.600 273.553,221.600 276.947 M182.074 278.431 C 181.201 279.828,180.958 283.200,181.730 283.200 C 182.673 283.200,183.200 281.920,183.200 279.626 C 183.200 277.444,182.893 277.118,182.074 278.431 " stroke="none" fill="#545454" fill-rule="evenodd"></path><path id="path1" d="M173.829 115.429 C 173.428 115.829,173.225 116.664,173.270 117.729 L 173.340 119.400 173.493 117.707 C 173.598 116.540,173.915 115.825,174.512 115.407 C 174.988 115.073,175.171 114.800,174.918 114.800 C 174.664 114.800,174.174 115.083,173.829 115.429 M217.280 116.880 C 217.016 117.144,216.800 117.538,216.800 117.756 C 216.800 117.975,217.044 117.819,217.342 117.411 C 217.683 116.945,218.136 116.767,218.563 116.930 C 218.965 117.085,219.142 117.029,218.997 116.795 C 218.665 116.258,217.862 116.298,217.280 116.880 M218.854 118.667 C 218.825 119.144,218.696 119.864,218.570 120.267 C 218.352 120.961,218.364 120.962,218.796 120.288 C 219.047 119.897,219.175 119.177,219.081 118.688 C 218.909 117.801,218.909 117.801,218.854 118.667 M216.514 120.200 C 216.517 121.300,216.595 121.703,216.687 121.095 C 216.779 120.486,216.777 119.586,216.682 119.095 C 216.587 118.603,216.511 119.100,216.514 120.200 M178.531 123.000 C 178.533 124.540,178.605 125.121,178.692 124.291 C 178.779 123.461,178.777 122.201,178.689 121.491 C 178.600 120.781,178.529 121.460,178.531 123.000 M217.483 122.012 C 217.111 122.445,216.964 122.800,217.155 122.800 C 217.595 122.800,218.574 121.641,218.336 121.402 C 218.238 121.304,217.854 121.579,217.483 122.012 M237.414 123.641 C 236.636 124.324,236.002 125.089,236.004 125.341 C 236.007 125.594,236.470 125.215,237.033 124.500 C 238.648 122.451,240.093 122.687,238.990 124.820 C 238.654 125.469,238.469 126.000,238.579 126.000 C 239.006 126.000,240.046 123.498,239.841 122.964 C 239.517 122.119,238.975 122.270,237.414 123.641 M176.562 125.500 C 176.981 125.995,177.611 126.386,177.962 126.368 C 178.504 126.342,178.509 126.303,178.000 126.116 C 177.670 125.995,177.040 125.604,176.600 125.248 C 175.807 124.606,175.806 124.608,176.562 125.500 M152.349 126.265 C 151.858 126.860,151.885 126.887,152.600 126.520 C 153.040 126.293,153.670 126.187,154.000 126.285 C 154.533 126.441,154.533 126.414,154.000 126.037 C 153.189 125.463,152.988 125.491,152.349 126.265 M235.654 126.900 C 235.600 127.996,236.472 128.454,236.997 127.605 C 237.134 127.382,236.983 127.308,236.653 127.435 C 236.260 127.586,236.004 127.351,235.886 126.731 C 235.727 125.895,235.703 125.912,235.654 126.900 M155.409 127.426 C 155.781 128.101,156.441 129.091,156.876 129.626 L 157.667 130.600 156.991 129.374 C 156.619 128.699,155.959 127.709,155.524 127.174 L 154.733 126.200 155.409 127.426 M152.235 130.400 C 152.922 133.172,156.799 138.000,158.338 138.000 C 159.306 138.000,159.401 137.286,158.790 134.600 C 158.463 133.167,158.445 133.239,158.616 135.300 C 158.763 137.075,158.682 137.600,158.258 137.600 C 157.364 137.600,154.020 133.738,152.965 131.487 C 152.427 130.339,152.099 129.850,152.235 130.400 M157.612 131.200 C 157.612 131.530,157.787 132.070,158.000 132.400 C 158.345 132.933,158.388 132.933,158.388 132.400 C 158.388 132.070,158.213 131.530,158.000 131.200 C 157.655 130.667,157.612 130.667,157.612 131.200 M258.200 135.157 C 261.347 135.635,260.402 138.495,256.222 141.146 C 255.134 141.836,254.423 142.400,254.643 142.400 C 254.863 142.400,255.861 141.881,256.861 141.248 C 261.022 138.608,261.730 134.708,258.020 134.857 L 256.600 134.914 258.200 135.157 M255.000 135.951 C 253.556 136.850,251.951 138.565,251.021 140.200 C 250.350 141.381,250.350 141.384,251.059 140.400 C 252.035 139.044,254.379 136.726,255.600 135.910 C 256.972 134.993,256.483 135.026,255.000 135.951 M136.800 139.893 C 137.350 139.994,138.070 140.284,138.400 140.538 C 138.922 140.940,138.929 140.909,138.451 140.300 C 138.148 139.914,137.430 139.624,136.851 139.654 L 135.800 139.709 136.800 139.893 M134.893 142.000 C 134.893 142.770,134.975 143.085,135.076 142.700 C 135.176 142.315,135.176 141.685,135.076 141.300 C 134.975 140.915,134.893 141.230,134.893 142.000 M139.450 141.506 C 139.697 141.668,140.462 142.690,141.150 143.778 C 141.837 144.866,142.400 145.577,142.400 145.357 C 142.400 144.614,140.022 141.200,139.509 141.206 C 139.150 141.210,139.133 141.299,139.450 141.506 M249.879 142.157 C 249.715 142.574,249.675 143.009,249.791 143.124 C 250.155 143.489,250.476 142.891,250.324 142.131 C 250.183 141.435,250.162 141.436,249.879 142.157 M252.000 142.800 C 251.196 143.057,251.157 143.123,251.800 143.132 C 252.240 143.138,252.960 142.989,253.400 142.800 C 254.419 142.362,253.368 142.362,252.000 142.800 M135.636 144.400 C 136.288 145.822,138.787 148.364,140.200 149.042 L 141.400 149.618 140.400 148.920 C 139.119 148.026,136.780 145.688,135.878 144.400 L 135.177 143.400 135.636 144.400 M142.468 146.400 C 142.488 147.439,143.118 149.146,143.132 148.200 C 143.138 147.760,142.989 147.040,142.800 146.600 C 142.589 146.110,142.461 146.032,142.468 146.400 M142.000 150.000 C 142.776 150.501,143.200 150.501,143.200 150.000 C 143.200 149.780,142.795 149.603,142.300 149.606 C 141.572 149.611,141.515 149.686,142.000 150.000 M267.715 153.017 C 265.072 154.335,262.000 157.189,262.000 158.328 C 262.000 159.306,262.698 159.402,265.400 158.794 C 266.793 158.480,266.703 158.461,264.700 158.646 C 262.870 158.814,262.400 158.740,262.400 158.284 C 262.400 157.355,266.252 154.022,268.513 152.994 C 269.661 152.473,270.410 152.036,270.179 152.023 C 269.947 152.010,268.838 152.458,267.715 153.017 M273.529 152.449 C 273.796 152.806,273.907 153.436,273.777 153.849 C 273.547 154.577,273.554 154.577,274.013 153.858 C 274.399 153.253,274.353 152.994,273.765 152.458 C 273.119 151.868,273.094 151.867,273.529 152.449 M271.793 155.856 C 269.698 157.245,269.096 157.852,270.600 157.058 C 271.860 156.394,273.948 154.824,273.593 154.809 C 273.479 154.804,272.669 155.275,271.793 155.856 M267.600 158.000 C 267.067 158.345,267.067 158.388,267.600 158.388 C 267.930 158.388,268.470 158.213,268.800 158.000 C 269.333 157.655,269.333 157.612,268.800 157.612 C 268.470 157.612,267.930 157.787,267.600 158.000 M122.667 160.267 C 122.070 160.863,124.324 164.005,125.341 163.996 C 125.594 163.993,125.215 163.530,124.500 162.967 C 122.451 161.352,122.687 159.907,124.820 161.010 C 125.469 161.346,126.000 161.531,126.000 161.421 C 126.000 160.789,123.136 159.798,122.667 160.267 M127.435 163.347 C 127.586 163.740,127.351 163.996,126.731 164.114 C 125.895 164.273,125.912 164.297,126.900 164.346 C 127.996 164.400,128.454 163.528,127.605 163.003 C 127.382 162.866,127.308 163.017,127.435 163.347 M282.293 173.493 C 283.460 173.598,284.175 173.915,284.593 174.512 C 284.927 174.988,285.200 175.171,285.200 174.918 C 285.200 173.916,283.928 173.201,282.271 173.270 L 280.600 173.340 282.293 173.493 M274.011 176.987 C 273.743 177.309,273.617 177.804,273.731 178.087 C 273.863 178.417,273.948 178.358,273.968 177.920 C 273.986 177.546,274.315 177.056,274.700 176.832 C 275.085 176.608,275.197 176.419,274.949 176.412 C 274.701 176.405,274.279 176.664,274.011 176.987 M281.800 177.600 C 280.920 178.007,280.341 178.354,280.513 178.370 C 280.987 178.415,283.600 177.272,283.600 177.020 C 283.600 176.749,283.723 176.710,281.800 177.600 M275.491 178.689 C 276.201 178.777,277.461 178.779,278.291 178.692 C 279.121 178.605,278.540 178.533,277.000 178.531 C 275.460 178.529,274.781 178.600,275.491 178.689 M116.543 181.405 C 116.285 182.078,117.048 183.207,117.749 183.188 C 117.997 183.181,117.885 182.992,117.500 182.768 C 115.926 181.851,116.673 181.075,118.900 181.312 C 120.217 181.453,120.702 181.409,120.200 181.196 C 118.854 180.624,116.797 180.742,116.543 181.405 M119.305 183.487 C 119.914 183.579,120.814 183.577,121.305 183.482 C 121.797 183.387,121.300 183.311,120.200 183.314 C 119.100 183.317,118.697 183.395,119.305 183.487 M152.200 188.648 C 143.432 190.908,141.917 204.462,150.000 208.325 C 152.107 209.332,157.369 209.248,159.200 208.178 C 160.843 207.218,161.705 203.134,160.124 203.802 C 153.051 206.792,149.400 204.996,149.400 198.526 C 149.400 193.336,152.420 191.115,157.528 192.548 C 158.806 192.906,159.976 193.200,160.126 193.200 C 160.520 193.200,160.452 189.902,160.045 189.259 C 159.689 188.697,153.791 188.238,152.200 188.648 M197.000 188.648 C 188.232 190.908,186.717 204.462,194.800 208.325 C 196.907 209.332,202.169 209.248,204.000 208.178 C 205.643 207.218,206.505 203.134,204.924 203.802 C 197.851 206.792,194.200 204.996,194.200 198.526 C 194.200 193.336,197.220 191.115,202.328 192.548 C 203.606 192.906,204.776 193.200,204.926 193.200 C 205.320 193.200,205.252 189.902,204.845 189.259 C 204.489 188.697,198.591 188.238,197.000 188.648 M166.800 189.028 C 166.800 189.153,167.610 190.590,168.600 192.221 C 169.590 193.852,170.400 195.263,170.400 195.358 C 170.400 195.452,171.075 196.940,171.900 198.664 C 173.269 201.527,173.400 202.096,173.401 205.200 L 173.402 208.600 175.501 208.721 L 177.600 208.842 177.600 205.391 C 177.600 202.080,177.681 201.771,179.600 197.722 C 180.700 195.402,181.600 193.443,181.600 193.369 C 181.600 193.296,182.140 192.319,182.800 191.200 C 184.316 188.628,184.395 188.800,181.700 188.801 L 179.400 188.801 178.544 190.701 C 178.074 191.745,177.264 193.545,176.744 194.699 C 175.536 197.386,175.690 197.476,173.498 192.800 L 171.623 188.800 169.211 188.800 C 167.885 188.800,166.800 188.903,166.800 189.028 M213.600 198.813 L 213.600 208.825 218.300 208.713 L 223.000 208.600 223.000 207.000 L 223.000 205.400 220.812 205.276 C 217.503 205.089,217.600 205.353,217.600 196.551 L 217.600 188.800 215.600 188.800 L 213.600 188.800 213.600 198.813 M231.200 198.800 L 231.200 208.800 236.822 208.800 L 242.444 208.800 242.322 206.951 L 242.200 205.103 238.800 205.051 L 235.400 205.000 235.281 202.500 L 235.162 200.000 237.501 200.000 C 240.079 200.000,240.800 199.563,240.800 198.000 C 240.800 196.440,240.079 196.000,237.520 196.000 L 235.200 196.000 235.200 194.216 L 235.200 192.432 238.500 192.316 L 241.800 192.200 241.923 190.500 L 242.046 188.800 236.623 188.800 L 231.200 188.800 231.200 198.800 M250.159 205.362 C 249.376 207.404,250.135 208.596,252.300 208.721 L 254.400 208.842 254.400 206.821 L 254.400 204.800 252.387 204.800 C 251.028 204.800,250.305 204.982,250.159 205.362 M278.905 216.687 C 279.514 216.779,280.414 216.777,280.905 216.682 C 281.397 216.587,280.900 216.511,279.800 216.514 C 278.700 216.517,278.297 216.595,278.905 216.687 M282.565 217.296 C 283.089 217.699,283.239 218.123,283.041 218.642 C 282.806 219.259,282.849 219.305,283.267 218.889 C 283.853 218.308,283.345 217.167,282.371 216.878 C 282.057 216.785,282.144 216.973,282.565 217.296 M279.600 218.794 C 279.930 219.011,280.635 219.191,281.167 219.194 C 282.451 219.202,282.125 218.975,280.400 218.658 C 279.415 218.477,279.178 218.518,279.600 218.794 M121.491 221.489 C 122.201 221.577,123.461 221.579,124.291 221.492 C 125.121 221.405,124.540 221.333,123.000 221.331 C 121.460 221.329,120.781 221.400,121.491 221.489 M126.032 221.969 C 126.014 222.281,125.692 222.911,125.315 223.369 C 124.669 224.153,124.683 224.151,125.562 223.342 C 126.075 222.870,126.397 222.240,126.279 221.942 C 126.104 221.503,126.057 221.508,126.032 221.969 M114.800 225.082 C 114.800 226.084,116.072 226.799,117.729 226.730 L 119.400 226.660 117.707 226.507 C 116.540 226.402,115.825 226.085,115.407 225.488 C 115.073 225.012,114.800 224.829,114.800 225.082 M272.000 236.176 C 272.000 236.493,272.178 236.863,272.395 236.997 C 272.618 237.134,272.692 236.983,272.565 236.653 C 272.414 236.260,272.649 236.004,273.269 235.886 C 274.105 235.727,274.088 235.703,273.100 235.654 C 272.384 235.619,272.000 235.801,272.000 236.176 M275.500 237.033 C 277.549 238.648,277.313 240.093,275.180 238.990 C 274.531 238.654,274.000 238.469,274.000 238.579 C 274.000 239.006,276.502 240.046,277.036 239.841 C 278.069 239.445,275.929 235.992,274.659 236.004 C 274.406 236.007,274.785 236.470,275.500 237.033 M134.400 241.233 C 133.318 241.486,133.523 241.519,135.300 241.377 C 137.072 241.235,137.600 241.319,137.600 241.742 C 137.600 242.636,133.738 245.980,131.487 247.035 C 130.339 247.573,129.850 247.903,130.400 247.769 C 133.297 247.061,138.000 243.236,138.000 241.586 C 138.000 240.722,137.002 240.624,134.400 241.233 M128.420 243.584 C 125.127 245.769,124.978 248.501,128.162 248.336 L 129.400 248.272 128.101 248.111 C 125.256 247.758,125.906 245.592,129.600 243.113 C 130.150 242.744,130.510 242.433,130.400 242.423 C 130.290 242.412,129.399 242.935,128.420 243.584 M256.800 250.000 C 256.800 250.220,257.205 250.397,257.700 250.394 C 258.428 250.389,258.485 250.314,258.000 250.000 C 257.224 249.499,256.800 249.499,256.800 250.000 M259.600 251.078 C 260.888 251.980,263.226 254.319,264.120 255.600 C 264.818 256.599,264.818 256.599,264.235 255.370 C 263.597 254.024,261.015 251.524,259.535 250.821 C 258.668 250.409,258.672 250.428,259.600 251.078 M256.868 251.800 C 256.862 252.240,257.011 252.960,257.200 253.400 C 257.638 254.419,257.638 253.368,257.200 252.000 C 256.943 251.196,256.877 251.157,256.868 251.800 M257.600 254.643 C 257.600 254.863,258.119 255.861,258.752 256.861 C 261.392 261.022,265.292 261.730,265.143 258.020 L 265.086 256.600 264.843 258.200 C 264.365 261.347,261.505 260.402,258.854 256.222 C 258.164 255.134,257.600 254.423,257.600 254.643 M145.956 257.388 C 143.909 258.141,141.199 259.920,141.206 260.505 C 141.210 260.830,141.313 260.856,141.506 260.581 C 142.151 259.661,144.599 258.250,146.740 257.566 C 147.983 257.168,148.640 256.846,148.200 256.850 C 147.760 256.853,146.750 257.096,145.956 257.388 M149.606 257.700 C 149.611 258.428,149.686 258.485,150.000 258.000 C 150.501 257.224,150.501 256.800,150.000 256.800 C 149.780 256.800,149.603 257.205,149.606 257.700 M148.631 259.941 C 148.059 261.047,146.425 262.653,144.391 264.109 L 143.400 264.818 144.600 264.242 C 146.368 263.393,150.440 258.800,149.424 258.800 C 149.312 258.800,148.955 259.313,148.631 259.941 M140.080 261.680 C 138.670 263.090,139.843 265.229,141.980 265.143 L 143.400 265.086 141.800 264.843 C 140.067 264.580,139.373 263.037,140.420 261.776 C 140.998 261.079,140.751 261.009,140.080 261.680 M240.823 262.900 C 240.836 263.395,241.010 264.520,241.210 265.400 C 241.537 266.833,241.555 266.761,241.384 264.700 C 241.237 262.925,241.318 262.400,241.742 262.400 C 242.636 262.400,245.980 266.262,247.035 268.513 C 247.573 269.661,247.901 270.150,247.765 269.600 C 246.746 265.488,240.741 259.692,240.823 262.900 M243.009 270.626 C 243.381 271.301,244.041 272.291,244.476 272.826 L 245.267 273.800 244.591 272.574 C 244.219 271.899,243.559 270.909,243.124 270.374 L 242.333 269.400 243.009 270.626 M248.046 271.851 C 247.992 273.316,247.210 274.111,246.151 273.777 C 245.487 273.567,245.477 273.589,246.066 273.970 C 247.424 274.849,248.775 273.241,248.282 271.332 C 248.170 270.901,248.074 271.114,248.046 271.851 M163.003 272.395 C 162.866 272.618,163.017 272.692,163.347 272.565 C 163.740 272.414,163.996 272.649,164.114 273.269 C 164.273 274.105,164.297 274.088,164.346 273.100 C 164.400 272.004,163.528 271.546,163.003 272.395 M161.513 273.900 C 160.048 275.579,159.644 277.600,160.774 277.600 C 161.363 277.600,164.001 275.192,163.996 274.659 C 163.993 274.406,163.530 274.785,162.967 275.500 C 161.092 277.879,159.704 277.137,161.388 274.656 C 162.448 273.094,162.502 272.766,161.513 273.900 M222.000 273.884 C 222.330 274.005,222.960 274.396,223.400 274.752 C 224.193 275.394,224.194 275.392,223.438 274.500 C 223.019 274.005,222.389 273.614,222.038 273.632 C 221.496 273.658,221.491 273.697,222.000 273.884 M221.331 277.000 C 221.333 278.540,221.405 279.121,221.492 278.291 C 221.579 277.461,221.577 276.201,221.489 275.491 C 221.400 274.781,221.329 275.460,221.331 277.000 M183.314 279.800 C 183.317 280.900,183.395 281.303,183.487 280.695 C 183.579 280.086,183.577 279.186,183.482 278.695 C 183.387 278.203,183.311 278.700,183.314 279.800 M181.052 280.100 C 180.622 281.705,180.781 283.218,181.405 283.457 C 182.078 283.715,183.207 282.952,183.188 282.251 C 183.181 282.003,182.992 282.115,182.768 282.500 C 181.867 284.047,181.073 283.331,181.325 281.200 C 181.576 279.086,181.455 278.598,181.052 280.100 M226.400 282.377 C 226.400 283.554,226.174 284.113,225.511 284.577 C 225.022 284.920,224.829 285.200,225.082 285.200 C 226.019 285.200,226.800 283.913,226.800 282.371 C 226.800 281.507,226.710 280.800,226.600 280.800 C 226.490 280.800,226.400 281.510,226.400 282.377 " stroke="none" fill="#9cc0e7" fill-rule="evenodd"></path></g></svg>