<svg id="svg" version="1.1" xmlns="http://www.w3.org/2000/svg" xmlns:xlink="http://www.w3.org/1999/xlink" width="400" height="400" viewBox="0, 0, 400,400"><g id="svgg"><path id="path0" d="M139.170 0.724 C 135.599 4.560,138.669 15.494,145.575 23.534 C 148.454 26.886,148.806 26.309,148.792 18.250 C 148.773 7.546,142.855 -3.234,139.170 0.724 M241.439 4.500 C 238.656 8.823,238.538 18.774,241.306 15.700 C 243.077 13.734,244.856 6.036,243.941 4.300 C 243.426 3.323,242.130 3.427,241.439 4.500 M291.189 18.660 C 287.862 20.879,285.186 24.834,284.648 28.328 L 284.382 30.056 285.637 29.328 C 287.492 28.252,290.993 24.231,292.170 21.825 C 293.826 18.440,293.431 17.164,291.189 18.660 M87.822 26.758 C 85.134 31.955,90.288 43.535,98.478 50.700 C 102.663 54.361,103.180 53.634,101.825 46.000 C 99.649 33.747,90.622 21.343,87.822 26.758 M334.127 47.575 C 328.941 49.442,322.781 55.347,319.898 61.216 C 317.742 65.606,317.739 65.581,320.483 65.089 C 329.317 63.506,335.426 60.130,340.068 54.264 C 343.813 49.532,340.149 45.407,334.127 47.575 M49.027 58.779 C 43.233 62.598,50.977 75.340,62.180 80.420 C 65.398 81.879,65.570 81.802,65.089 79.117 C 62.873 66.747,53.994 55.504,49.027 58.779 M366.000 87.614 C 364.790 88.070,363.029 88.713,362.087 89.043 C 356.866 90.865,345.573 100.339,346.614 102.022 C 348.088 104.408,363.121 99.983,369.601 95.255 C 376.705 90.071,374.105 84.554,366.000 87.614 M18.000 106.829 C 18.000 109.581,24.972 115.200,28.387 115.200 C 30.178 115.200,29.908 114.501,26.972 111.536 C 23.476 108.005,18.000 105.132,18.000 106.829 M390.600 138.098 C 383.856 139.771,372.817 146.531,374.319 148.069 C 376.201 149.996,389.267 148.622,394.600 145.938 C 402.880 141.769,399.838 135.806,390.600 138.098 M4.300 155.621 C 1.425 157.340,6.192 160.168,12.000 160.188 C 17.481 160.207,18.174 159.015,13.651 157.345 C 12.633 156.970,11.620 156.538,11.400 156.386 C 11.180 156.234,10.010 155.994,8.800 155.853 C 7.590 155.713,6.240 155.509,5.800 155.400 C 5.360 155.291,4.685 155.391,4.300 155.621 M96.400 175.188 C 96.070 175.408,95.313 175.591,94.719 175.594 C 94.124 175.597,93.134 175.805,92.519 176.057 C 84.927 179.155,81.163 183.413,79.483 190.800 C 79.016 192.856,78.938 201.503,79.368 203.600 C 80.648 209.847,87.582 218.000,91.614 218.000 C 92.020 218.000,92.450 218.157,92.568 218.348 C 93.349 219.613,103.265 219.598,107.000 218.328 C 111.993 216.629,112.400 216.149,112.400 211.954 L 112.400 208.362 110.628 209.581 C 109.653 210.251,108.584 210.800,108.252 210.800 C 107.919 210.800,107.550 210.957,107.432 211.148 C 107.314 211.340,106.358 211.610,105.308 211.748 C 104.259 211.887,102.700 212.113,101.844 212.250 C 96.058 213.181,87.600 207.476,87.600 202.642 C 87.600 202.157,87.408 201.568,87.173 201.333 C 86.715 200.875,86.864 193.539,87.375 191.400 C 88.197 187.961,90.839 184.533,93.582 183.346 C 94.362 183.009,95.313 182.568,95.695 182.366 C 96.645 181.865,106.288 181.895,106.600 182.400 C 106.736 182.620,107.191 182.800,107.611 182.800 C 108.032 182.800,109.017 183.160,109.800 183.600 C 110.583 184.040,111.309 184.400,111.412 184.400 C 111.515 184.400,111.600 182.644,111.600 180.498 C 111.600 176.176,111.643 176.242,108.200 175.380 C 106.257 174.894,97.066 174.744,96.400 175.188 M195.200 175.188 C 194.870 175.408,194.150 175.593,193.600 175.600 C 192.072 175.618,189.611 176.585,186.400 178.426 C 183.479 180.102,178.800 186.597,178.800 188.976 C 178.800 189.451,178.601 190.039,178.358 190.282 C 177.745 190.895,177.738 203.498,178.350 204.110 C 178.598 204.358,178.800 204.949,178.800 205.424 C 178.800 209.232,186.898 218.000,190.414 218.000 C 190.820 218.000,191.250 218.157,191.368 218.348 C 192.515 220.205,204.595 219.371,208.645 217.156 C 211.763 215.451,211.600 215.751,211.600 211.704 L 211.600 208.001 209.700 209.330 C 207.869 210.611,206.811 211.008,202.694 211.959 C 196.693 213.347,189.575 210.276,187.408 205.364 C 187.029 204.504,186.516 203.375,186.268 202.856 C 185.690 201.643,185.703 191.937,186.285 190.712 C 186.523 190.211,186.996 189.166,187.335 188.391 C 188.127 186.580,190.589 184.121,192.391 183.342 C 193.166 183.007,194.113 182.568,194.495 182.366 C 195.445 181.865,205.088 181.895,205.400 182.400 C 205.536 182.620,206.076 182.800,206.600 182.800 C 207.124 182.800,207.664 182.980,207.800 183.200 C 207.936 183.420,208.337 183.600,208.692 183.600 C 209.047 183.600,209.666 183.898,210.069 184.262 C 210.773 184.899,210.800 184.766,210.800 180.662 C 210.800 176.710,210.744 176.400,210.024 176.400 C 209.597 176.400,209.148 176.240,209.027 176.044 C 208.480 175.159,196.369 174.409,195.200 175.188 M127.600 175.828 C 127.600 175.953,128.140 176.841,128.800 177.800 C 129.460 178.759,130.000 179.659,130.000 179.800 C 130.000 179.941,130.504 180.808,131.120 181.728 C 132.147 183.259,136.364 191.652,139.298 198.000 C 139.959 199.430,140.845 201.325,141.267 202.212 C 141.955 203.656,142.023 204.606,141.918 211.313 L 141.800 218.801 145.900 218.800 L 150.000 218.800 150.000 210.995 C 150.000 206.702,150.162 202.877,150.359 202.495 C 150.557 202.113,151.434 200.270,152.309 198.400 C 153.184 196.530,154.845 193.020,155.999 190.600 C 157.154 188.180,158.654 185.030,159.333 183.600 C 160.012 182.170,161.219 180.010,162.014 178.800 C 162.810 177.590,163.593 176.375,163.754 176.100 C 163.981 175.713,163.058 175.600,159.653 175.600 L 155.259 175.600 154.185 177.900 C 153.594 179.165,152.431 181.640,151.600 183.400 C 150.769 185.160,149.638 187.590,149.088 188.800 C 145.861 195.887,146.477 196.238,140.663 184.000 C 139.461 181.470,138.096 178.545,137.629 177.500 L 136.780 175.600 132.190 175.600 C 129.666 175.600,127.600 175.703,127.600 175.828 M230.800 197.200 L 230.800 218.800 240.400 218.800 L 250.000 218.800 250.000 215.200 L 250.000 211.600 244.400 211.600 L 238.800 211.600 238.800 193.600 L 238.800 175.600 234.800 175.600 L 230.800 175.600 230.800 197.200 M269.200 197.200 L 269.200 218.800 280.748 218.800 L 292.297 218.800 292.568 215.900 C 292.718 214.305,292.932 212.689,293.044 212.308 C 293.233 211.670,292.598 211.608,284.924 211.508 L 276.600 211.400 276.600 205.200 L 276.600 199.000 282.500 198.889 L 288.400 198.779 288.400 195.400 L 288.400 192.021 282.500 191.911 L 276.600 191.800 276.486 187.458 C 276.411 184.599,276.530 182.925,276.835 182.558 C 277.404 181.872,289.580 181.747,290.826 182.414 C 291.556 182.804,291.600 182.673,291.605 180.114 C 291.608 178.621,291.719 176.995,291.852 176.500 L 292.093 175.600 280.647 175.600 L 269.200 175.600 269.200 197.200 M310.991 214.800 L 310.982 218.800 314.991 218.800 L 319.000 218.800 319.029 214.800 L 319.058 210.800 315.029 210.800 L 311.000 210.800 310.991 214.800 M384.300 239.639 C 383.017 240.138,382.943 240.445,383.900 241.306 C 385.844 243.057,393.548 244.815,395.324 243.913 C 399.047 242.025,388.589 237.970,384.300 239.639 M14.600 251.051 C 5.286 252.051,-3.325 258.309,1.100 260.862 C 4.372 262.750,7.841 262.526,14.148 260.021 C 19.597 257.856,27.107 252.111,25.363 251.441 C 24.483 251.103,16.730 250.822,14.600 251.051 M370.000 284.749 C 370.000 286.762,378.217 293.200,380.787 293.200 C 383.444 293.200,378.797 287.395,374.761 285.672 C 372.544 284.726,370.000 284.233,370.000 284.749 M42.504 298.596 C 35.296 300.589,26.023 306.385,25.995 308.914 C 25.992 309.181,25.883 309.796,25.753 310.281 C 24.773 313.937,32.998 313.309,41.000 309.116 C 45.258 306.885,53.200 299.634,53.200 297.977 C 53.200 297.226,45.938 297.647,42.504 298.596 M334.400 318.994 C 334.400 327.187,343.495 341.600,348.664 341.600 C 354.091 341.600,354.068 335.357,348.615 328.200 C 344.562 322.881,334.400 316.300,334.400 318.994 M77.378 335.031 C 67.271 337.233,57.289 344.687,58.169 349.374 C 59.769 357.906,75.742 349.081,80.688 336.931 C 81.833 334.118,81.761 334.076,77.378 335.031 M297.868 346.666 C 297.720 346.813,297.600 348.449,297.600 350.301 C 297.600 361.801,307.912 378.106,311.944 372.980 C 315.008 369.085,309.309 356.126,301.537 349.317 C 298.308 346.488,298.156 346.378,297.868 346.666 M112.783 371.414 C 109.075 374.512,105.330 380.891,106.716 381.748 C 108.547 382.880,115.200 374.619,115.200 371.213 C 115.200 369.658,114.851 369.687,112.783 371.414 M251.288 374.700 C 250.767 375.970,250.970 386.481,251.552 388.401 C 251.853 389.390,252.349 391.020,252.656 392.023 C 253.599 395.107,256.371 398.913,257.966 399.314 C 260.793 400.024,262.978 396.300,262.004 392.430 C 261.751 391.424,261.347 389.790,261.106 388.800 C 259.594 382.588,252.331 372.157,251.288 374.700 M158.704 383.699 C 156.969 385.030,154.817 393.846,155.832 395.466 C 156.669 396.804,157.948 396.219,158.903 394.061 C 161.022 389.271,160.882 382.026,158.704 383.699 " stroke="none" fill="#ffffff" fill-rule="evenodd"></path><path id="path2" d="M138.286 1.162 C 137.909 1.801,137.615 2.566,137.633 2.862 C 137.651 3.158,137.921 2.815,138.234 2.100 C 138.546 1.385,138.982 0.800,139.201 0.800 C 139.421 0.800,139.600 0.620,139.600 0.400 C 139.600 -0.361,138.970 0.005,138.286 1.162 M143.287 1.314 C 145.029 3.059,146.925 6.757,147.825 10.167 C 148.227 11.689,148.616 12.753,148.689 12.532 C 149.289 10.734,145.425 2.240,143.221 0.513 C 141.969 -0.469,142.010 0.037,143.287 1.314 M241.385 3.715 C 241.157 3.982,240.723 4.830,240.421 5.600 C 240.119 6.370,239.721 7.171,239.536 7.380 C 239.351 7.589,239.204 8.309,239.208 8.980 C 239.215 9.934,239.426 9.606,240.177 7.478 C 242.091 2.055,244.477 1.991,244.175 7.371 L 244.038 9.800 244.469 7.468 C 245.106 4.023,243.154 1.648,241.385 3.715 M137.309 5.600 C 137.309 6.590,137.387 6.995,137.482 6.500 C 137.578 6.005,137.578 5.195,137.482 4.700 C 137.387 4.205,137.309 4.610,137.309 5.600 M137.605 8.233 C 137.612 9.381,138.624 12.966,139.356 14.432 C 139.710 15.142,140.000 15.893,140.000 16.100 C 140.000 16.751,144.267 22.918,145.977 24.741 C 147.790 26.671,148.835 26.736,148.746 24.913 C 148.699 23.969,148.665 23.937,148.518 24.700 C 148.251 26.082,147.512 25.789,145.575 23.534 C 141.874 19.226,139.185 14.141,138.390 9.947 C 137.975 7.758,137.597 6.933,137.605 8.233 M242.837 12.685 C 241.448 16.314,240.362 17.209,239.665 15.300 L 239.263 14.200 239.232 15.251 C 239.180 16.974,240.255 17.537,241.365 16.368 C 242.304 15.379,244.261 10.928,243.911 10.578 C 243.804 10.471,243.321 11.419,242.837 12.685 M148.907 18.600 C 148.905 22.901,148.947 23.185,149.303 21.333 C 149.567 19.963,149.568 18.342,149.305 16.533 C 148.913 13.831,148.909 13.854,148.907 18.600 M290.695 18.515 C 287.623 20.375,284.488 25.209,284.090 28.700 C 283.809 31.161,284.630 30.939,288.141 27.604 C 293.937 22.099,295.815 15.416,290.695 18.515 M293.200 18.860 C 293.200 21.236,288.591 27.615,285.637 29.328 L 284.382 30.056 284.648 28.328 C 285.186 24.834,287.862 20.879,291.189 18.660 C 292.532 17.764,293.200 17.831,293.200 18.860 M87.726 26.100 C 86.178 28.507,85.995 31.196,87.200 33.800 C 88.115 35.777,88.204 35.219,87.360 32.800 C 86.671 30.823,86.835 28.665,87.822 26.758 C 88.415 25.611,88.345 25.136,87.726 26.100 M91.615 26.500 C 94.081 27.743,98.293 33.954,100.226 39.196 C 100.511 39.968,100.756 40.291,100.772 39.913 C 100.905 36.663,93.061 25.600,90.624 25.600 C 90.126 25.600,90.496 25.935,91.615 26.500 M88.027 36.036 C 87.914 38.686,94.067 47.600,98.719 51.526 C 101.608 53.964,102.582 54.082,102.636 51.997 L 102.672 50.600 102.512 51.900 C 101.964 56.355,92.710 46.127,88.488 36.400 C 88.225 35.793,88.044 35.650,88.027 36.036 M100.812 41.400 C 100.812 41.840,100.987 42.470,101.200 42.800 C 101.521 43.297,101.588 43.262,101.588 42.600 C 101.588 42.160,101.413 41.530,101.200 41.200 C 100.879 40.703,100.812 40.738,100.812 41.400 M101.857 45.800 C 101.991 47.120,102.168 48.275,102.250 48.367 C 102.569 48.721,102.324 44.956,101.979 44.200 C 101.738 43.672,101.696 44.216,101.857 45.800 M333.580 47.332 C 327.743 49.734,321.094 56.519,318.814 62.400 C 318.516 63.170,318.121 63.971,317.936 64.180 C 317.503 64.670,317.501 65.600,317.933 65.600 C 318.117 65.600,318.267 65.352,318.267 65.050 C 318.267 61.957,324.443 53.752,329.475 50.162 C 335.772 45.668,341.600 46.035,341.600 50.924 C 341.600 54.458,334.336 60.935,328.074 62.985 C 326.905 63.368,326.036 63.770,326.144 63.877 C 326.252 63.985,327.429 63.687,328.760 63.214 C 335.833 60.703,343.323 53.195,341.983 49.959 C 340.527 46.444,337.806 45.594,333.580 47.332 M48.017 59.138 C 44.679 62.314,47.070 68.766,54.054 75.428 C 57.979 79.173,65.600 83.231,65.600 81.576 C 65.600 81.343,65.428 81.259,65.218 81.389 C 64.057 82.106,55.918 77.151,52.994 73.947 C 46.849 67.212,45.288 61.243,49.027 58.779 C 52.602 56.422,60.406 63.546,62.992 71.526 C 63.371 72.695,63.771 73.562,63.880 73.453 C 64.742 72.592,60.663 65.156,57.678 62.147 C 52.847 57.278,50.681 56.603,48.017 59.138 M323.800 64.400 L 323.000 64.744 323.800 64.766 C 324.240 64.778,324.870 64.613,325.200 64.400 C 325.995 63.886,324.996 63.886,323.800 64.400 M319.600 65.200 C 318.625 65.512,318.630 65.521,319.800 65.532 C 320.460 65.538,321.360 65.389,321.800 65.200 C 322.894 64.730,321.067 64.730,319.600 65.200 M64.034 74.400 C 64.046 74.730,64.211 75.360,64.400 75.800 L 64.744 76.600 64.766 75.800 C 64.778 75.360,64.613 74.730,64.400 74.400 C 64.055 73.867,64.015 73.867,64.034 74.400 M64.880 77.800 C 64.880 78.460,65.024 79.450,65.200 80.000 C 65.511 80.972,65.520 80.967,65.520 79.800 C 65.520 79.140,65.376 78.150,65.200 77.600 C 64.889 76.628,64.880 76.633,64.880 77.800 M365.304 87.360 C 363.931 87.854,362.671 88.407,362.504 88.588 C 362.134 88.990,363.048 88.744,366.200 87.595 C 371.874 85.528,375.634 88.150,372.956 92.308 C 371.386 94.745,362.844 99.708,358.285 100.831 C 357.231 101.090,356.461 101.394,356.573 101.507 C 357.849 102.783,370.481 96.103,373.153 92.739 C 376.828 88.112,372.139 84.898,365.304 87.360 M358.267 90.409 C 354.380 92.678,351.227 95.197,348.917 97.879 C 345.456 101.897,345.303 102.839,348.124 102.743 L 349.800 102.686 348.200 102.438 C 346.192 102.126,346.261 101.731,348.846 98.747 C 352.276 94.787,355.543 92.226,360.200 89.844 C 361.300 89.281,361.930 88.819,361.600 88.817 C 361.270 88.816,359.770 89.532,358.267 90.409 M352.600 102.000 L 351.000 102.286 353.000 102.337 C 354.100 102.365,355.270 102.213,355.600 102.000 C 356.311 101.541,355.166 101.541,352.600 102.000 M21.728 107.506 C 24.434 108.989,29.600 113.702,29.600 114.689 C 29.600 114.970,29.105 115.218,28.500 115.240 L 27.400 115.280 28.400 115.600 C 30.038 116.125,30.400 116.044,30.400 115.155 C 30.400 113.843,25.037 108.732,22.111 107.256 C 18.670 105.519,18.409 105.689,21.728 107.506 M17.600 106.947 C 17.600 109.239,24.314 115.322,26.687 115.181 C 26.859 115.171,26.100 114.695,25.000 114.124 C 21.929 112.530,19.870 110.644,18.682 108.338 C 18.087 107.183,17.600 106.558,17.600 106.947 M393.197 137.211 C 392.770 137.480,393.103 137.589,394.367 137.594 C 396.267 137.600,396.388 137.453,394.797 137.073 C 394.245 136.941,393.525 137.003,393.197 137.211 M389.400 138.000 C 388.671 138.313,388.688 138.344,389.600 138.344 C 390.150 138.344,390.960 138.189,391.400 138.000 C 392.129 137.687,392.112 137.656,391.200 137.656 C 390.650 137.656,389.840 137.811,389.400 138.000 M397.469 138.183 C 401.867 140.096,399.394 144.119,392.000 147.078 C 390.790 147.563,390.147 147.968,390.570 147.979 C 391.807 148.012,397.216 145.158,398.668 143.705 C 401.062 141.312,399.906 137.544,396.800 137.617 C 396.470 137.625,396.771 137.880,397.469 138.183 M384.737 139.591 C 377.978 142.455,370.977 148.860,374.700 148.775 C 375.757 148.750,375.765 148.735,374.900 148.388 C 373.625 147.875,373.754 147.531,375.900 145.735 C 379.087 143.068,382.455 140.987,385.500 139.802 C 387.095 139.181,388.400 138.612,388.400 138.537 C 388.400 138.202,387.205 138.546,384.737 139.591 M387.400 148.400 L 386.600 148.744 387.400 148.744 C 387.840 148.744,388.560 148.589,389.000 148.400 L 389.800 148.056 389.000 148.056 C 388.560 148.056,387.840 148.211,387.400 148.400 M378.536 149.302 C 380.082 149.566,381.706 149.568,383.336 149.307 C 385.679 148.931,385.564 148.911,381.000 148.907 C 376.518 148.903,376.355 148.929,378.536 149.302 M3.618 155.778 C 1.933 157.809,5.991 160.483,11.153 160.744 C 14.012 160.888,17.200 160.309,17.200 159.645 C 17.200 159.070,15.830 157.808,14.600 157.251 C 13.940 156.951,13.087 156.548,12.705 156.353 C 12.323 156.159,11.792 156.000,11.525 156.000 C 10.700 156.000,11.687 156.626,13.651 157.348 C 18.176 159.012,17.481 160.207,12.000 160.188 C 7.336 160.172,3.600 158.646,3.600 156.758 C 3.600 156.363,3.915 155.856,4.300 155.632 C 4.685 155.408,4.797 155.219,4.549 155.212 C 4.301 155.205,3.882 155.460,3.618 155.778 M7.000 155.600 C 8.740 156.043,11.382 156.043,10.000 155.600 C 9.450 155.424,8.280 155.283,7.400 155.287 C 5.878 155.294,5.858 155.310,7.000 155.600 M96.400 174.373 C 93.700 174.770,90.111 176.025,87.803 177.377 C 74.302 185.289,74.993 210.930,88.890 217.729 C 95.880 221.149,106.274 220.768,111.799 216.888 L 113.400 215.764 113.515 211.617 C 113.645 206.907,113.411 206.382,111.801 207.765 C 107.013 211.879,97.925 212.534,92.911 209.125 C 85.404 204.021,85.967 188.157,93.800 184.097 C 98.640 181.589,106.479 182.080,111.000 185.174 C 112.790 186.398,112.800 186.376,112.800 181.214 C 112.800 175.854,112.889 176.020,109.400 174.900 C 107.416 174.263,99.362 173.937,96.400 174.373 M195.200 174.377 C 179.766 176.682,171.977 193.875,179.448 209.147 C 184.586 219.647,200.401 223.665,210.442 217.020 L 212.000 215.989 212.000 211.394 C 212.000 208.867,211.919 206.800,211.821 206.800 C 211.722 206.800,211.191 207.217,210.642 207.726 C 206.211 211.832,196.838 212.513,191.712 209.102 C 184.470 204.282,184.553 188.826,191.844 184.553 C 196.874 181.605,205.153 181.864,209.534 185.105 C 211.413 186.496,211.644 185.999,211.514 180.840 C 211.387 175.849,211.477 176.003,208.000 174.839 C 206.213 174.241,198.076 173.948,195.200 174.377 M268.364 175.045 C 268.143 175.310,268.035 184.315,268.097 197.245 L 268.200 219.000 280.800 219.000 L 293.400 219.000 293.400 215.060 L 293.400 211.121 285.400 211.060 L 277.400 211.000 277.400 205.200 L 277.400 199.400 283.514 199.290 L 289.629 199.179 289.514 195.290 L 289.400 191.400 283.300 191.290 L 277.200 191.179 277.200 187.198 L 277.200 183.217 284.900 183.109 L 292.600 183.000 292.600 178.800 L 292.600 174.600 280.667 174.600 C 272.393 174.600,268.621 174.737,268.364 175.045 M108.200 175.380 C 111.643 176.242,111.600 176.176,111.600 180.498 C 111.600 182.644,111.515 184.400,111.412 184.400 C 111.309 184.400,110.583 184.040,109.800 183.600 C 109.017 183.160,108.032 182.800,107.611 182.800 C 107.191 182.800,106.736 182.620,106.600 182.400 C 106.288 181.895,96.645 181.865,95.695 182.366 C 95.313 182.568,94.362 183.009,93.582 183.346 C 90.839 184.533,88.197 187.961,87.375 191.400 C 86.864 193.539,86.715 200.875,87.173 201.333 C 87.408 201.568,87.600 202.157,87.600 202.642 C 87.600 207.476,96.058 213.181,101.844 212.250 C 102.700 212.113,104.259 211.887,105.308 211.748 C 106.358 211.610,107.314 211.340,107.432 211.148 C 107.550 210.957,107.919 210.800,108.252 210.800 C 108.584 210.800,109.653 210.251,110.628 209.581 L 112.400 208.362 112.400 211.954 C 112.400 216.149,111.993 216.629,107.000 218.328 C 103.265 219.598,93.349 219.613,92.568 218.348 C 92.450 218.157,92.020 218.000,91.614 218.000 C 89.083 218.000,83.208 212.797,81.426 208.979 C 79.189 204.184,79.082 203.656,79.078 197.400 C 79.072 189.032,80.555 184.979,85.330 180.315 C 87.667 178.031,92.490 175.607,94.719 175.594 C 95.313 175.591,96.070 175.408,96.400 175.188 C 97.066 174.744,106.257 174.894,108.200 175.380 M126.400 175.238 C 126.400 175.479,126.738 176.154,127.151 176.738 C 129.744 180.406,133.838 188.013,137.517 196.000 C 138.176 197.430,139.229 199.680,139.858 201.000 C 140.996 203.392,141.000 203.425,140.987 211.300 L 140.973 219.200 145.791 219.200 L 150.610 219.200 150.459 211.959 C 150.351 206.730,150.448 204.423,150.808 203.659 C 151.082 203.076,151.453 202.240,151.631 201.800 C 152.071 200.712,155.916 192.576,159.098 186.000 C 160.535 183.030,162.496 179.466,163.455 178.081 C 165.808 174.683,165.932 174.800,159.981 174.800 L 154.761 174.800 152.652 179.300 C 151.491 181.775,150.049 184.880,149.445 186.200 C 148.842 187.520,147.840 189.680,147.218 191.000 L 146.088 193.400 143.298 187.600 C 141.763 184.410,139.831 180.360,139.005 178.600 C 138.178 176.840,137.299 175.268,137.051 175.106 C 136.298 174.615,126.400 174.738,126.400 175.238 M207.304 175.401 C 208.131 175.559,208.906 175.849,209.027 176.044 C 209.148 176.240,209.597 176.400,210.024 176.400 C 210.744 176.400,210.800 176.710,210.800 180.662 C 210.800 184.766,210.773 184.899,210.069 184.262 C 209.666 183.898,209.047 183.600,208.692 183.600 C 208.337 183.600,207.936 183.420,207.800 183.200 C 207.664 182.980,207.124 182.800,206.600 182.800 C 206.076 182.800,205.536 182.620,205.400 182.400 C 205.088 181.895,195.445 181.865,194.495 182.366 C 194.113 182.568,193.166 183.007,192.391 183.342 C 190.589 184.121,188.127 186.580,187.335 188.391 C 186.996 189.166,186.523 190.211,186.285 190.712 C 185.703 191.937,185.690 201.643,186.268 202.856 C 186.516 203.375,187.029 204.504,187.408 205.364 C 189.575 210.276,196.693 213.347,202.694 211.959 C 206.811 211.008,207.869 210.611,209.700 209.330 L 211.600 208.001 211.600 211.704 C 211.600 215.751,211.763 215.451,208.645 217.156 C 204.595 219.371,192.515 220.205,191.368 218.348 C 191.250 218.157,190.820 218.000,190.414 218.000 C 186.898 218.000,178.800 209.232,178.800 205.424 C 178.800 204.949,178.598 204.358,178.350 204.110 C 177.738 203.498,177.745 190.895,178.358 190.282 C 178.601 190.039,178.800 189.451,178.800 188.976 C 178.800 186.597,183.479 180.102,186.400 178.426 C 189.611 176.585,192.072 175.618,193.600 175.600 C 194.150 175.593,194.870 175.408,195.200 175.188 C 195.847 174.757,204.748 174.913,207.304 175.401 M230.267 175.067 C 230.120 175.213,230.000 185.203,230.000 197.267 L 230.000 219.200 239.100 219.205 C 244.105 219.208,248.560 219.301,249.000 219.411 C 250.476 219.779,250.802 219.096,251.066 215.084 L 251.319 211.222 245.360 211.111 L 239.400 211.000 239.296 192.900 L 239.192 174.800 234.863 174.800 C 232.481 174.800,230.413 174.920,230.267 175.067 M137.629 177.500 C 138.096 178.545,139.461 181.470,140.663 184.000 C 145.809 194.831,146.136 195.246,147.388 192.519 C 147.772 191.683,148.537 190.010,149.088 188.800 C 149.638 187.590,150.769 185.160,151.600 183.400 C 152.431 181.640,153.594 179.165,154.185 177.900 L 155.259 175.600 159.653 175.600 C 163.058 175.600,163.981 175.713,163.754 176.100 C 163.593 176.375,162.810 177.590,162.014 178.800 C 161.219 180.010,160.012 182.170,159.333 183.600 C 158.654 185.030,157.154 188.180,155.999 190.600 C 154.845 193.020,153.184 196.530,152.309 198.400 C 151.434 200.270,150.557 202.113,150.359 202.495 C 150.162 202.877,150.000 206.702,150.000 210.995 L 150.000 218.800 145.900 218.800 L 141.800 218.801 141.918 211.313 C 142.023 204.606,141.955 203.656,141.267 202.212 C 140.845 201.325,139.959 199.430,139.298 198.000 C 136.364 191.652,132.147 183.259,131.120 181.728 C 130.504 180.808,130.000 179.941,130.000 179.800 C 130.000 179.659,129.460 178.759,128.800 177.800 C 128.140 176.841,127.600 175.953,127.600 175.828 C 127.600 175.703,129.666 175.600,132.190 175.600 L 136.780 175.600 137.629 177.500 M238.800 193.600 L 238.800 211.600 244.400 211.600 L 250.000 211.600 250.000 215.200 L 250.000 218.800 240.400 218.800 L 230.800 218.800 230.800 197.200 L 230.800 175.600 234.800 175.600 L 238.800 175.600 238.800 193.600 M291.852 176.500 C 291.719 176.995,291.608 178.621,291.605 180.114 C 291.600 182.673,291.556 182.804,290.826 182.414 C 289.580 181.747,277.404 181.872,276.835 182.558 C 276.530 182.925,276.411 184.599,276.486 187.458 L 276.600 191.800 282.500 191.911 L 288.400 192.021 288.400 195.400 L 288.400 198.779 282.500 198.889 L 276.600 199.000 276.600 205.200 L 276.600 211.400 284.924 211.508 C 292.598 211.608,293.233 211.670,293.044 212.308 C 292.932 212.689,292.718 214.305,292.568 215.900 L 292.297 218.800 280.748 218.800 L 269.200 218.800 269.200 197.200 L 269.200 175.600 280.647 175.600 L 292.093 175.600 291.852 176.500 M310.400 214.800 L 310.400 219.200 315.200 219.200 L 320.000 219.200 320.000 214.800 L 320.000 210.400 315.200 210.400 L 310.400 210.400 310.400 214.800 M319.029 214.800 L 319.000 218.800 314.991 218.800 L 310.982 218.800 310.991 214.800 L 311.000 210.800 315.029 210.800 L 319.058 210.800 319.029 214.800 M386.900 239.076 C 387.285 239.176,387.915 239.176,388.300 239.076 C 388.685 238.975,388.370 238.893,387.600 238.893 C 386.830 238.893,386.515 238.975,386.900 239.076 M383.200 239.596 C 381.684 240.566,386.446 244.065,389.168 243.980 C 389.516 243.970,388.638 243.514,387.217 242.968 C 383.300 241.461,382.345 240.379,384.300 239.665 C 385.156 239.352,385.223 239.258,384.600 239.238 C 384.160 239.224,383.530 239.385,383.200 239.596 M391.224 239.746 C 396.804 241.251,397.806 244.252,392.686 244.126 C 390.788 244.079,390.484 244.140,391.400 244.385 C 394.953 245.334,397.421 244.281,396.481 242.218 C 395.966 241.087,392.157 239.186,390.488 239.227 C 389.660 239.248,389.836 239.372,391.224 239.746 M11.670 251.008 C 9.439 251.552,8.117 252.304,10.200 251.845 C 13.389 251.141,18.148 250.756,21.400 250.939 C 23.554 251.061,24.598 251.009,24.000 250.811 C 22.444 250.296,14.041 250.430,11.670 251.008 M25.494 251.526 C 26.866 252.398,19.143 258.069,13.661 260.215 C 11.757 260.961,10.501 261.577,10.868 261.585 C 11.236 261.593,12.946 261.001,14.668 260.268 C 20.849 257.639,28.712 251.180,25.700 251.206 C 25.208 251.210,25.147 251.305,25.494 251.526 M5.138 253.257 C 2.505 254.645,-0.331 256.986,0.094 257.421 C 0.256 257.587,0.754 257.258,1.201 256.690 C 2.158 255.473,4.198 254.144,6.989 252.916 C 8.095 252.430,8.640 252.039,8.200 252.048 C 7.760 252.057,6.382 252.601,5.138 253.257 M0.184 260.775 C 0.558 261.379,2.851 262.402,3.761 262.372 C 4.308 262.353,4.046 262.141,3.010 261.761 C 2.135 261.441,1.244 261.004,1.030 260.790 C 0.532 260.292,-0.121 260.280,0.184 260.775 M7.200 262.000 L 6.200 262.320 7.200 262.332 C 7.750 262.338,8.560 262.189,9.000 262.000 L 9.800 261.656 9.000 261.668 C 8.560 261.674,7.750 261.824,7.200 262.000 M369.200 284.288 C 369.200 285.805,374.508 290.984,377.686 292.568 C 382.806 295.119,383.654 292.990,379.351 288.389 C 376.849 285.715,369.200 282.624,369.200 284.288 M374.761 285.672 C 378.797 287.395,383.444 293.200,380.787 293.200 C 378.217 293.200,370.000 286.762,370.000 284.749 C 370.000 284.233,372.544 284.726,374.761 285.672 M48.600 297.191 C 47.252 297.440,47.487 297.495,50.100 297.543 C 53.799 297.611,53.807 297.639,50.967 300.986 C 44.160 309.011,31.497 314.807,26.900 312.004 C 26.185 311.568,25.600 311.346,25.600 311.510 C 25.600 312.780,29.939 313.774,32.300 313.044 C 41.035 310.345,46.038 307.247,51.317 301.267 C 54.766 297.361,53.989 296.196,48.600 297.191 M40.992 298.558 C 33.238 301.024,25.532 306.382,25.634 309.238 C 25.666 310.124,25.696 310.109,26.015 309.042 C 27.023 305.676,35.640 300.276,42.700 298.586 C 44.295 298.204,45.600 297.826,45.600 297.746 C 45.600 297.382,43.562 297.741,40.992 298.558 M334.046 318.700 C 334.075 319.377,334.163 319.531,334.276 319.100 C 334.922 316.628,344.362 322.618,348.615 328.200 C 354.068 335.357,354.091 341.600,348.664 341.600 C 345.336 341.600,338.721 334.160,336.815 328.273 C 336.543 327.433,336.224 326.843,336.106 326.960 C 335.989 327.078,336.115 327.765,336.387 328.487 C 339.207 335.980,346.416 343.280,349.711 341.979 C 352.657 340.816,354.022 338.358,353.196 335.700 C 351.025 328.712,345.039 322.299,337.437 318.817 C 334.185 317.327,333.988 317.321,334.046 318.700 M334.456 321.400 C 334.456 322.060,334.611 322.960,334.800 323.400 C 335.093 324.082,335.144 324.023,335.144 323.000 C 335.144 322.340,334.989 321.440,334.800 321.000 C 334.507 320.318,334.456 320.377,334.456 321.400 M335.212 324.800 C 335.212 325.130,335.387 325.670,335.600 326.000 C 335.945 326.533,335.988 326.533,335.988 326.000 C 335.988 325.670,335.813 325.130,335.600 324.800 C 335.255 324.267,335.212 324.267,335.212 324.800 M80.692 334.410 L 81.585 334.769 80.782 336.641 C 80.341 337.671,80.064 338.597,80.167 338.700 C 80.369 338.902,81.480 336.417,81.855 334.923 C 82.057 334.117,81.942 334.003,80.943 334.025 C 79.866 334.049,79.852 334.071,80.692 334.410 M76.600 334.800 C 75.506 335.270,77.333 335.270,78.800 334.800 C 79.775 334.488,79.770 334.479,78.600 334.468 C 77.940 334.462,77.040 334.611,76.600 334.800 M71.701 336.212 C 64.830 338.788,57.597 345.180,57.601 348.672 C 57.605 351.421,61.076 354.147,63.465 353.277 C 64.537 352.886,64.496 352.861,62.731 352.832 C 59.515 352.777,57.082 349.663,58.372 347.253 C 60.605 343.079,66.178 338.731,72.000 336.619 C 74.090 335.860,75.440 335.248,75.000 335.258 C 74.560 335.267,73.075 335.697,71.701 336.212 M78.035 341.746 C 75.366 345.843,70.428 350.155,66.311 351.984 C 64.332 352.863,64.827 353.082,66.866 352.230 C 71.058 350.479,81.093 340.560,79.891 339.357 C 79.791 339.258,78.956 340.332,78.035 341.746 M297.217 346.579 C 296.824 347.053,296.797 347.820,297.099 349.898 L 297.491 352.600 297.546 349.724 C 297.615 346.041,297.735 346.005,300.873 348.724 C 305.596 352.817,309.093 357.710,311.011 362.909 C 311.399 363.959,311.803 364.730,311.910 364.623 C 312.017 364.516,311.688 363.387,311.179 362.114 C 308.189 354.633,299.009 344.420,297.217 346.579 M297.636 354.680 C 297.590 355.290,298.719 359.652,298.994 359.927 C 299.408 360.341,299.171 358.943,298.431 356.600 C 298.014 355.280,297.657 354.416,297.636 354.680 M299.233 360.673 C 299.170 361.584,302.794 368.222,304.608 370.518 C 307.585 374.285,310.757 375.539,312.177 373.511 C 313.116 372.170,312.925 371.734,311.944 372.980 C 309.619 375.936,304.561 371.539,300.649 363.161 C 299.888 361.533,299.251 360.413,299.233 360.673 M312.203 366.100 C 312.367 366.595,312.614 368.080,312.754 369.400 C 312.979 371.539,313.038 371.661,313.289 370.523 C 313.557 369.308,312.669 365.200,312.138 365.200 C 312.011 365.200,312.040 365.605,312.203 366.100 M114.191 369.834 C 111.753 371.088,105.711 378.644,106.508 379.441 C 106.614 379.547,107.092 378.885,107.570 377.968 C 110.146 373.025,115.154 368.537,115.234 371.100 L 115.269 372.200 115.624 371.010 C 116.091 369.444,115.650 369.083,114.191 369.834 M114.036 374.702 C 112.362 378.147,108.723 381.733,106.902 381.733 C 106.626 381.733,106.400 381.883,106.400 382.067 C 106.400 383.061,110.130 380.809,112.104 378.623 C 113.264 377.339,115.434 373.301,115.129 372.996 C 115.031 372.898,114.539 373.665,114.036 374.702 M251.200 373.787 C 251.200 374.111,251.432 374.286,251.715 374.177 C 252.603 373.837,257.749 380.345,259.046 383.448 C 259.376 384.239,259.757 384.777,259.891 384.643 C 260.704 383.829,253.004 373.200,251.601 373.200 C 251.380 373.200,251.200 373.464,251.200 373.787 M250.652 376.100 C 250.325 377.320,250.410 385.554,250.763 386.800 C 250.918 387.350,251.035 384.965,251.023 381.500 C 251.010 378.035,250.976 375.200,250.947 375.200 C 250.917 375.200,250.785 375.605,250.652 376.100 M158.262 383.532 C 157.080 384.838,155.514 389.315,155.369 391.800 C 155.264 393.609,155.313 393.904,155.568 393.000 C 155.753 392.340,155.927 391.264,155.953 390.610 C 156.021 388.884,158.026 384.014,158.849 383.574 C 159.730 383.102,159.977 383.478,160.389 385.920 C 160.696 387.741,160.707 387.754,160.753 386.319 C 160.844 383.438,159.603 382.049,158.262 383.532 M260.011 385.300 C 260.112 386.191,261.552 389.558,261.572 388.949 C 261.601 388.076,260.544 385.200,260.195 385.200 C 260.088 385.200,260.005 385.245,260.011 385.300 M160.225 389.800 C 159.423 394.583,157.183 397.453,155.797 395.474 C 155.369 394.863,155.200 394.794,155.200 395.231 C 155.200 396.866,157.035 397.264,158.285 395.900 C 159.399 394.684,160.900 390.391,160.712 388.959 C 160.588 388.007,160.501 388.156,160.225 389.800 M251.212 388.600 C 251.212 389.040,251.387 389.670,251.600 390.000 C 251.921 390.497,251.988 390.462,251.988 389.800 C 251.988 389.360,251.813 388.730,251.600 388.400 C 251.279 387.903,251.212 387.938,251.212 388.600 M261.656 390.800 C 261.656 391.350,261.811 392.160,262.000 392.600 C 262.313 393.329,262.344 393.312,262.344 392.400 C 262.344 391.850,262.189 391.040,262.000 390.600 C 261.687 389.871,261.656 389.888,261.656 390.800 M252.026 391.400 C 252.008 392.335,254.747 397.392,255.977 398.695 C 258.352 401.211,262.497 399.487,262.358 396.041 C 262.323 395.169,262.237 395.257,261.828 396.579 C 260.243 401.706,255.605 399.655,252.829 392.600 C 252.396 391.500,252.035 390.960,252.026 391.400 " stroke="none" fill="#9cc0e7" fill-rule="evenodd"></path></g></svg>